<svg version="1.1" xmlns="http://www.w3.org/2000/svg" viewBox="0 0 1278.5766194661455 1092.333450317383" width="1278.5766194661455" height="1092.333450317383">
  <!-- svg-source:excalidraw -->
  
  <defs>
    <style class="style-fonts">
      @font-face {
        font-family: "Virgil";
        src: url("https://excalidraw.com/Virgil.woff2");
      }
      @font-face {
        font-family: "Cascadia";
        src: url("https://excalidraw.com/Cascadia.woff2");
      }
    </style>
    
  </defs>
  <rect x="0" y="0" width="1278.5766194661455" height="1092.333450317383" fill="#ffffff"></rect><g stroke-linecap="round"><g transform="translate(229.41992187500006 612.1343114510321) rotate(0 283.0578550486499 85.30312878751283)"><path d="M0.06 -0.77 C31.62 27.41, 94.18 153.86, 188.75 168.59 C283.32 183.32, 504.54 101.05, 567.49 87.63 M-1.37 1.44 C30.63 29.79, 96.4 155.04, 191.08 169.63 C285.76 184.23, 504.21 102.97, 566.72 89" stroke="#000000" stroke-width="1" fill="none"></path></g><g transform="translate(229.41992187500006 612.1343114510321) rotate(0 283.0578550486499 85.30312878751283)"><path d="M541.21 105.48 C547.06 102.26, 554.86 96.05, 567.68 87.09 M543.09 106.47 C549.94 101.09, 557.54 96.2, 566.92 88.8" stroke="#000000" stroke-width="1" fill="none"></path></g><g transform="translate(229.41992187500006 612.1343114510321) rotate(0 283.0578550486499 85.30312878751283)"><path d="M535.5 85.77 C542.69 87.48, 551.92 86.2, 567.68 87.09 M537.37 86.76 C545.94 87.57, 555.33 88.84, 566.92 88.8" stroke="#000000" stroke-width="1" fill="none"></path></g></g><mask></mask><g stroke-opacity="0.4" fill-opacity="0.4" stroke-linecap="round" transform="translate(587.57666015625 10) rotate(0 340.49997965494777 536.1667251586915)"><path d="M32 0 M32 0 C248.72 0.06, 466.86 -0.07, 649 0 M649 0 C669.46 1.53, 682.33 11.79, 681 32 M681 32 C677.64 401.69, 676.4 771.95, 681 1040.33 M681 1040.33 C682.39 1061.17, 670.22 1071.42, 649 1072.33 M649 1072.33 C497.31 1070.14, 345.27 1071.43, 32 1072.33 M32 1072.33 C12.41 1074.07, -1.7 1062.16, 0 1040.33 M0 1040.33 C2.7 683.12, 2.95 326.18, 0 32 M0 32 C-1.17 10.62, 9.89 0.71, 32 0" stroke="#495057" stroke-width="1.5" fill="none" stroke-dasharray="8 9"></path></g><g stroke-linecap="round"><g transform="translate(686.7635617856722 510.9712762440264) rotate(0 -219.18623925375954 40.755799410973054)"><path d="M-1.1 0.62 C-24.79 9.24, -68.6 37.88, -141.46 51.38 C-214.32 64.87, -388.61 76.79, -438.26 81.61 M0.52 -0.1 C-23.35 8.73, -68.97 39.47, -142.21 52.75 C-215.44 66.02, -389.33 74.82, -438.89 79.53" stroke="#000000" stroke-width="1" fill="none"></path></g><g transform="translate(686.7635617856722 510.9712762440264) rotate(0 -219.18623925375954 40.755799410973054)"><path d="M-410.5 67.86 C-421.83 71.78, -430.19 74.31, -440.24 77.71 M-411.41 67.88 C-420.46 72.33, -431.35 75.42, -438.22 79.45" stroke="#000000" stroke-width="1" fill="none"></path></g><g transform="translate(686.7635617856722 510.9712762440264) rotate(0 -219.18623925375954 40.755799410973054)"><path d="M-408.98 88.33 C-420.79 84.95, -429.69 80.21, -440.24 77.71 M-409.9 88.34 C-419.58 85.51, -431.01 81.34, -438.22 79.45" stroke="#000000" stroke-width="1" fill="none"></path></g></g><mask></mask><g stroke-linecap="round"><g transform="translate(238.90997314453125 414.6667022705078) rotate(0 226.4464747292532 -45.03542058069263)"><path d="M0.43 0.33 C26.57 -12.2, 82.43 -60.07, 157.97 -74.9 C233.52 -89.73, 404.46 -86.23, 453.7 -88.67 M-0.8 -0.54 C25.07 -13.4, 81.32 -61.47, 157.01 -76.45 C232.69 -91.42, 403.83 -88.42, 453.3 -90.4" stroke="#000000" stroke-width="1" fill="none"></path></g><g transform="translate(238.90997314453125 414.6667022705078) rotate(0 226.4464747292532 -45.03542058069263)"><path d="M20.29 -22.68 C13.99 -12.33, 6.48 -3.79, 0.9 -1.56 M19.75 -23.16 C16.01 -18.62, 11.48 -12.83, 1.01 0.57" stroke="#000000" stroke-width="1" fill="none"></path></g><g transform="translate(238.90997314453125 414.6667022705078) rotate(0 226.4464747292532 -45.03542058069263)"><path d="M30.53 -4.9 C20.15 -1.54, 8.59 -0.02, 0.9 -1.56 M30 -5.38 C24 -4.5, 17.36 -2.38, 1.01 0.57" stroke="#000000" stroke-width="1" fill="none"></path></g><g transform="translate(238.90997314453125 414.6667022705078) rotate(0 226.4464747292532 -45.03542058069263)"><path d="M425.81 -79.77 C438.14 -82.88, 449.34 -87.63, 453.77 -92.29 M425.28 -80.25 C431.02 -82.65, 436.26 -83.8, 453.88 -90.16" stroke="#000000" stroke-width="1" fill="none"></path></g><g transform="translate(238.90997314453125 414.6667022705078) rotate(0 226.4464747292532 -45.03542058069263)"><path d="M425.51 -100.29 C438.01 -95.3, 449.32 -91.94, 453.77 -92.29 M424.98 -100.77 C430.94 -98.94, 436.24 -95.86, 453.88 -90.16" stroke="#000000" stroke-width="1" fill="none"></path></g></g><mask></mask><g stroke-linecap="round" transform="translate(424.37533832811994 729.3448555827163) rotate(0 35.339290345615666 53.62540939705457)"><path d="M1.62 -0.67 L69.11 -1.58 L69.38 107.06 L-1.45 108.23" stroke="none" stroke-width="0" fill="#fff"></path><path d="M0.44 0.4 C19.86 2.03, 38.22 1.5, 70.05 -1.59 M0.56 -0.09 C18.64 1.06, 37.86 -0.11, 70.58 -0.66 M68.97 -0.3 C68.04 32.8, 70.3 64.24, 69.98 106.23 M71.09 -0.29 C70.81 39.14, 69.8 79.32, 70.04 106.78 M72.66 109.09 C48.83 107.02, 27.53 106.08, 0.51 107.86 M70.23 107.1 C55.76 107.53, 42.27 106.44, -0.17 108.12 M0.31 105.51 C-1.59 66.24, -0.62 22.57, -1.31 -0.52 M0.03 107.01 C1.13 75.25, 1.72 43.79, 0.8 0.51" stroke="#000000" stroke-width="2" fill="none"></path></g><g stroke-linecap="round" transform="translate(416.8279052924057 722.324766297002) rotate(0 35.339290345615666 53.625409397054625)"><path d="M-0.67 -1.57 L69.1 -1.3 L70.48 105.8 L0.98 105.94" stroke="none" stroke-width="0" fill="#fff"></path><path d="M0.4 -0.1 C22.38 -1.86, 42.62 -0.78, 69.08 -0.65 M-0.09 -0.27 C27.02 -0.37, 51.92 -0.5, 70.02 -0.05 M70.38 -1.6 C72.49 22.45, 72.25 42.9, 69.66 108.56 M70.39 0.52 C70.13 27.79, 71.1 55.94, 70.21 107.41 M72.52 107.72 C53.83 109.43, 36.01 108.46, 0.61 105.27 M70.53 106.53 C42.97 106.91, 13.96 106.77, 0.87 108.22 M-1.74 106.2 C2.53 69.63, 1.43 30.87, -0.52 -0.03 M-0.24 107.57 C0.87 84.07, 1.44 59.86, 0.51 0.81" stroke="#000000" stroke-width="2" fill="none"></path></g><g stroke-linecap="round" transform="translate(407.43281600669036 714.0708600470025) rotate(0 35.339290345615666 53.625409397054625)"><path d="M-1.57 -1.58 L69.38 -0.19 L69.22 108.23 L-1.31 107.41" stroke="none" stroke-width="0" fill="#fff"></path><path d="M-0.1 1.6 C15.16 0.92, 33.1 -1.74, 70.03 1.38 M-0.27 0.95 C20.16 -0.15, 40.15 -0.6, 70.63 -0.97 M69.08 1.13 C70.42 39.91, 69.07 77.02, 71.99 106.53 M71.2 -0.08 C70.62 28.39, 70.48 54.53, 70.84 106.64 M71.14 107.28 C53.46 106.98, 33.79 108.51, -1.98 109.15 M69.96 107.46 C48.78 106.26, 26.76 108.01, 0.97 107.75 M-1.05 108.81 C-0.25 85.17, -1.48 61.64, -0.03 -1.51 M0.32 107.28 C0.88 84.01, 0.77 60.08, 0.81 -0.33" stroke="#000000" stroke-width="2" fill="none"></path></g><g stroke-linecap="round"><g transform="translate(419.4192425936013 762.8180970943549) rotate(0 22.327942218728708 -1.4039591283035406)"><path d="M-0.06 0.96 C6.47 1.05, 31.69 1.63, 39.4 0.8 C47.11 -0.04, 45.07 -3.54, 46.2 -4.05 M-1.55 0.42 C5.32 0.14, 33.78 -0.38, 41.58 -0.99 C49.38 -1.6, 44.46 -2.67, 45.24 -3.23" stroke="#000000" stroke-width="1" fill="none"></path></g></g><mask></mask><g stroke-linecap="round"><g transform="translate(421.2744948316157 731.3528097955164) rotate(0 23.50357962669608 -1.0622527494990095)"><path d="M0.96 -1.02 C3.83 -1.54, 10.2 -3.23, 17.47 -3.18 C24.75 -3.13, 39.79 -1.16, 44.61 -0.72 M0 1.06 C2.75 0.71, 9.03 -1.73, 16.86 -1.84 C24.69 -1.95, 41.97 0.01, 47 0.4" stroke="#000000" stroke-width="1" fill="none"></path></g></g><mask></mask><g stroke-linecap="round"><g transform="translate(421.1978953152462 798.7471840658736) rotate(0 23.641388419905127 -0.1748218478707031)"><path d="M-1.02 0.64 C3.33 0.28, 19.66 -1.63, 26.04 -1.21 C32.41 -0.79, 33.55 3.15, 37.23 3.14 C40.92 3.13, 46.32 -0.38, 48.15 -1.29 M0.64 -0.07 C4.81 -0.4, 18.95 -0.39, 24.89 -0.18 C30.83 0.04, 32.36 1.78, 36.26 1.23 C40.16 0.68, 46.56 -2.94, 48.3 -3.49" stroke="#000000" stroke-width="1" fill="none"></path></g></g><mask></mask><g stroke-linecap="round"><g transform="translate(418.0138481337159 809.9903324741522) rotate(0 27.80702277591638 -1.0537895421045391)"><path d="M0.64 -0.38 C2.01 -0.47, 6.49 -1.45, 9.21 -1.56 C11.93 -1.66, 10.67 -1.37, 16.96 -1.03 C23.24 -0.68, 40.75 0.53, 46.94 0.51 C53.12 0.49, 52.83 -0.64, 54.08 -1.15 M-0.48 -1.62 C1.17 -1.45, 8.57 -0.52, 11.42 -0.22 C14.27 0.08, 10.6 -0.1, 16.62 0.2 C22.64 0.49, 40.96 2.23, 47.54 1.56 C54.12 0.89, 54.71 -2.94, 56.1 -3.82" stroke="#000000" stroke-width="1" fill="none"></path></g></g><mask></mask><g stroke-linecap="round"><g transform="translate(418.2986910292817 746.4134113487776) rotate(0 23.184155324815322 0.5505341745242731)"><path d="M-0.38 -0.96 C2.76 -1.02, 9.95 -0.35, 17.81 0.23 C25.66 0.82, 41.91 2.34, 46.75 2.56 M1.63 1.16 C4.66 0.7, 9.28 -1.36, 16.65 -1.45 C24.03 -1.55, 40.82 -0.09, 45.88 0.57" stroke="#000000" stroke-width="1" fill="none"></path></g></g><mask></mask><g stroke-linecap="round"><g transform="translate(418.4061792254321 780.8967403846173) rotate(0 22.861120203762823 0.6961717478973242)"><path d="M-0.96 -0.39 C0.42 -0.12, 5.62 1.3, 8.92 1.24 C12.22 1.19, 12.59 -0.99, 18.87 -0.69 C25.15 -0.4, 41.92 2.64, 46.6 3.03 M0.74 -1.64 C1.98 -1.15, 5.45 2.32, 8.41 2.69 C11.36 3.05, 12.08 0.84, 18.46 0.57 C24.84 0.3, 42.17 0.86, 46.68 1.08" stroke="#000000" stroke-width="1" fill="none"></path></g></g><mask></mask><g transform="translate(376.24336751302087 840.3332672119141) rotate(0 85.21993255615234 12.5)"><text x="0" y="0" font-family="Virgil, Segoe UI Emoji" font-size="20px" fill="#000000" text-anchor="start" style="white-space: pre;" direction="ltr" dominant-baseline="text-before-edge">Forecast Ratings</text></g><g stroke-linecap="round" transform="translate(360.0419439596303 521.3094942237663) rotate(0 35.339290345615666 53.625409397054625)"><path d="M-1.78 1.85 L71.87 1.5 L72.35 108.81 L-1.96 107.12" stroke="none" stroke-width="0" fill="#fff"></path><path d="M1.57 1.57 C20.05 -1.76, 45.27 0.44, 71.29 1.26 M0.11 -0.43 C19.75 -0.44, 40.61 0.62, 70.56 -0.06 M69.34 1.58 C70.03 23.73, 73.13 42.37, 71.75 106.83 M69.78 -0.97 C70.67 41.82, 69.48 83.26, 71.56 106.49 M70.75 106.35 C46.77 105.93, 24.87 105.86, 0.45 107.46 M70.76 106.84 C55.95 106.71, 40.74 107.43, -0.51 107.7 M-1.35 106.85 C-0.24 75.49, 1.11 45.29, 0.31 -1.71 M0.81 107.49 C1.13 73.81, -0.57 39.6, -0.81 0.7" stroke="#000000" stroke-width="2" fill="none"></path></g><g stroke-linecap="round" transform="translate(352.4945109239161 514.2894049380516) rotate(0 35.339290345615666 53.625409397054625)"><path d="M1.85 1.19 L72.18 1.67 L72.23 105.29 L-0.13 108.64" stroke="none" stroke-width="0" fill="#fff"></path><path d="M1.57 -1.73 C18.99 1.16, 41.56 0.06, 71.94 -0.14 M-0.43 -0.97 C14.63 -0.91, 30.86 -0.19, 70.62 -0.96 M72.26 -1.42 C71.8 41.61, 68.52 80.94, 70.26 109.01 M69.71 0.91 C70.86 22.7, 70.71 46.84, 69.92 107.62 M69.78 107.12 C48.73 109.03, 27.42 107.73, 0.21 105.62 M70.27 107.97 C43.88 108.25, 18.64 106.8, 0.45 107.1 M-0.4 106.06 C-1.82 84.8, -1.45 62.36, -1.71 0.32 M0.24 108.21 C0.54 76.09, 0.23 45.6, 0.7 -0.89" stroke="#000000" stroke-width="2" fill="none"></path></g><g stroke-linecap="round" transform="translate(343.09942163820074 506.03549868805203) rotate(0 35.339290345615666 53.625409397054625)"><path d="M1.19 1.5 L72.35 1.56 L68.72 107.12 L1.39 105.47" stroke="none" stroke-width="0" fill="#fff"></path><path d="M-1.73 -1.39 C26.63 0.25, 50.46 0.7, 70.54 -1.71 M-0.97 -0.54 C19.42 0.83, 40.4 0.24, 69.72 0.72 M69.26 1.81 C71.64 23.83, 71.03 50.18, 72.43 105.54 M71.59 0.23 C69.43 31.75, 70.59 62.55, 71.04 107.26 M70.55 106.53 C57.27 106.14, 40.8 107.14, -1.63 108.6 M71.39 106.42 C47.59 106.86, 22.12 107.41, -0.15 106.36 M-1.19 106.07 C0.87 67.88, 1.03 28.42, 0.32 -0.33 M0.96 107.71 C-1.62 76.01, -1.68 45.17, -0.89 0.93" stroke="#000000" stroke-width="2" fill="none"></path></g><g stroke-linecap="round"><g transform="translate(355.0858482251117 554.7827357354045) rotate(0 22.95814735593575 -1.4704508135685614)"><path d="M-1.04 -0.83 C5.71 -0.88, 33.45 0.89, 41.45 0.64 C49.45 0.39, 46.11 -1.54, 46.95 -2.34 M0.62 1.34 C7.22 0.85, 33.42 -0.29, 41.04 -1.23 C48.67 -2.16, 45.43 -3.9, 46.38 -4.28" stroke="#000000" stroke-width="1" fill="none"></path></g></g><mask></mask><g stroke-linecap="round"><g transform="translate(356.9411004631261 523.3174484365663) rotate(0 22.74429022629542 -1.6684432156586126)"><path d="M-0.83 1.03 C1.9 0.79, 9.46 -2.19, 17.32 -2.43 C25.18 -2.67, 41.78 -0.73, 46.32 -0.41 M0.93 0.52 C3.46 0, 9.12 -4.42, 16.62 -4.36 C24.13 -4.3, 41.35 0.05, 45.95 0.87" stroke="#000000" stroke-width="1" fill="none"></path></g></g><mask></mask><g stroke-linecap="round"><g transform="translate(356.8645009467566 590.7118227069232) rotate(0 24.22237472532916 0.11836942453129495)"><path d="M1.03 0.48 C5.66 0.71, 20.7 0.36, 26.78 0.5 C32.87 0.63, 33.97 1.68, 37.54 1.29 C41.1 0.9, 46.46 -1.1, 48.18 -1.84 M0.11 -0.31 C4.71 -0.35, 19.92 -1.62, 26.03 -1.23 C32.13 -0.83, 33.01 1.98, 36.73 2.07 C40.45 2.16, 46.17 0.24, 48.34 -0.66" stroke="#000000" stroke-width="1" fill="none"></path></g></g><mask></mask><g stroke-linecap="round"><g transform="translate(353.6804537652263 601.9549711152022) rotate(0 27.049772768748966 -0.9337772021326032)"><path d="M0.48 0.37 C2.44 -0.01, 8.48 -1.02, 10.92 -1.25 C13.36 -1.48, 9.19 -1.23, 15.11 -1 C21.02 -0.78, 40.03 0.42, 46.39 0.1 C52.75 -0.22, 52.07 -2.65, 53.24 -2.94 M-0.72 -0.48 C1.22 -0.14, 7.34 0.13, 10.37 0.25 C13.4 0.37, 11.41 0.12, 17.46 0.23 C23.52 0.35, 40.48 1.45, 46.7 0.93 C52.93 0.42, 53.56 -2.34, 54.82 -2.89" stroke="#000000" stroke-width="1" fill="none"></path></g></g><mask></mask><g stroke-linecap="round"><g transform="translate(353.9652966607921 538.3780499898271) rotate(0 22.936101155161424 0.8842451768134083)"><path d="M0.37 0.75 C3.22 0.4, 10.38 -1.83, 18.11 -1.62 C25.85 -1.41, 42.05 1.62, 46.77 2.01 M-0.9 0.1 C1.7 -0.17, 9.32 -1.17, 17.12 -0.62 C24.92 -0.07, 41.04 3.09, 45.92 3.4" stroke="#000000" stroke-width="1" fill="none"></path></g></g><mask></mask><g stroke-linecap="round"><g transform="translate(354.07278485694246 572.8613790256668) rotate(0 22.72787170916007 0.7796166373216238)"><path d="M0.75 -0.08 C1.85 0.07, 4.14 1.44, 7.07 1.27 C10 1.1, 11.87 -1.1, 18.32 -1.1 C24.77 -1.11, 41.16 0.64, 45.76 1.24 M-0.31 -1.17 C1.11 -0.86, 6.25 2.53, 9.24 2.72 C12.23 2.91, 11.6 0.06, 17.62 -0.06 C23.65 -0.17, 40.41 1.46, 45.4 2.01" stroke="#000000" stroke-width="1" fill="none"></path></g></g><mask></mask><g transform="translate(298.90997314453125 632.2979058529636) rotate(0 76.59992980957031 25)"><text x="0" y="0" font-family="Virgil, Segoe UI Emoji" font-size="20px" fill="#000000" text-anchor="start" style="white-space: pre;" direction="ltr" dominant-baseline="text-before-edge">Forecast Limits</text><text x="0" y="25" font-family="Virgil, Segoe UI Emoji" font-size="20px" fill="#000000" text-anchor="start" style="white-space: pre;" direction="ltr" dominant-baseline="text-before-edge"> Snapshot</text></g><g stroke-linecap="round" transform="translate(539.5419439596303 504.80949422376625) rotate(0 35.339290345615666 53.625409397054625)"><path d="M-1.71 1.88 L71.94 1.21 L71.22 106.22 L1.77 107.35" stroke="none" stroke-width="0" fill="#fff"></path><path d="M-0.31 0.07 C28.85 -0.91, 57.26 -1.83, 69.66 -1.53 M-0.76 -0.68 C22.5 -1.06, 43.41 0.01, 70.62 0.18 M69.32 1.77 C72.34 29.69, 71.41 60.34, 72.21 107.71 M69.78 -0.65 C69.48 36.4, 70.13 74.58, 70.52 107.92 M71.43 107.53 C51.12 108.19, 31.3 106.59, -1.52 105.92 M70.59 106.42 C44.55 108.58, 18.19 107.07, -0.03 106.93 M-1.88 107.98 C-0.05 72.29, 0.55 40.96, -1.15 0.95 M-0.48 107.15 C-2.01 76.33, -0.88 47, 0.68 -0.98" stroke="#000000" stroke-width="2" fill="none"></path></g><g stroke-linecap="round" transform="translate(531.9945109239161 497.7894049380516) rotate(0 35.339290345615666 53.625409397054625)"><path d="M1.88 1.26 L71.88 0.54 L69.65 109.02 L0.1 108.5" stroke="none" stroke-width="0" fill="#fff"></path><path d="M0.07 1.13 C13.97 1.94, 27.35 -0.91, 69.15 0.25 M-0.68 0.43 C13.77 -0.2, 29.49 0.48, 70.86 -0.12 M72.45 1.42 C68.7 35.08, 68.41 70.7, 71.14 108.21 M70.02 -0.22 C69.05 22.82, 69.94 44.62, 71.34 107.09 M70.96 107.78 C54.12 108.32, 35.72 106, -1.33 108.72 M69.85 107.52 C46.25 107.49, 19.48 107.15, -0.32 107.43 M0.73 107.88 C-1.36 69.53, 1.36 28.19, 0.95 -0.38 M-0.1 106.31 C-1.69 64.56, -0.9 22.18, -0.98 -0.86" stroke="#000000" stroke-width="2" fill="none"></path></g><g stroke-linecap="round" transform="translate(522.5994216382005 489.53549868805203) rotate(0 35.339290345615666 53.625409397054625)"><path d="M1.26 1.21 L71.22 -1.03 L72.45 107.35 L1.25 107.51" stroke="none" stroke-width="0" fill="#fff"></path><path d="M1.13 -0.33 C28.92 -1.27, 53.15 -1.55, 70.92 -1.86 M0.43 -0.87 C22.27 0.67, 45.97 0.66, 70.56 0.22 M72.1 -1.24 C70.44 23.2, 71.49 49.92, 71.63 105.43 M70.46 -0.9 C70.15 24.86, 69.56 50.39, 70.52 106.63 M71.21 107.49 C43.31 105.99, 12.81 106.02, 1.47 108.4 M70.95 108.09 C44.86 106, 18.41 106.35, 0.17 107.88 M0.63 106.33 C2.24 72.46, -0.14 35.02, -0.38 2 M-0.94 106.45 C0.7 66.19, 1.19 24.18, -0.86 0.94" stroke="#000000" stroke-width="2" fill="none"></path></g><g stroke-linecap="round"><g transform="translate(534.5858482251115 538.2827357354045) rotate(0 22.91718708364141 -1.7127684936530727)"><path d="M0.68 -0.2 C7.63 -0.3, 33.98 0.05, 41.53 -0.59 C49.07 -1.23, 45.1 -3.41, 45.97 -4.01 M-0.42 -1.34 C6.48 -1.31, 33.6 0.86, 41.16 0.55 C48.71 0.25, 43.9 -2.47, 44.88 -3.17" stroke="#000000" stroke-width="1" fill="none"></path></g></g><mask></mask><g stroke-linecap="round"><g transform="translate(536.4411004631261 506.81744843656634) rotate(0 22.6534304052758 -1.1045315377065776)"><path d="M-0.2 1.1 C2.48 0.42, 8.61 -3.2, 16.08 -3.41 C23.56 -3.63, 39.92 -0.75, 44.65 -0.18 M-1.76 0.63 C1.3 0.04, 10.27 -2.29, 18.4 -2.2 C26.54 -2.1, 42.78 0.64, 47.06 1.21" stroke="#000000" stroke-width="1" fill="none"></path></g></g><mask></mask><g stroke-linecap="round"><g transform="translate(536.3645009467564 574.2118227069232) rotate(0 24.63556835553277 -0.4509028267481199)"><path d="M1.1 -0.75 C5.29 -0.91, 19.69 -1.5, 25.8 -1.17 C31.91 -0.85, 33.96 1.49, 37.77 1.2 C41.57 0.92, 47.02 -2.43, 48.64 -2.87 M0.22 1.47 C4.75 1.45, 22.05 -0.19, 28.19 -0.12 C34.34 -0.04, 33.6 2.29, 37.08 1.94 C40.56 1.58, 47.02 -1.79, 49.05 -2.25" stroke="#000000" stroke-width="1" fill="none"></path></g></g><mask></mask><g stroke-linecap="round"><g transform="translate(533.180453765226 585.4549711152022) rotate(0 27.087313461687415 -0.8775505139659572)"><path d="M-0.75 -0.61 C0.83 -0.96, 6.62 -1.03, 9.25 -1.02 C11.88 -1.01, 9 -0.67, 15.02 -0.54 C21.03 -0.4, 38.7 0.27, 45.35 -0.2 C52 -0.67, 53.56 -3.04, 54.92 -3.35 M1.06 1.69 C3.02 2.06, 8.77 0.72, 11.48 0.6 C14.19 0.47, 11.72 0.96, 17.33 0.94 C22.93 0.92, 39.06 1.22, 45.12 0.48 C51.19 -0.26, 52.16 -2.93, 53.72 -3.51" stroke="#000000" stroke-width="1" fill="none"></path></g></g><mask></mask><g stroke-linecap="round"><g transform="translate(533.4652966607919 521.8780499898271) rotate(0 23.31296201121677 0.023989393401791403)"><path d="M-0.61 -0.92 C2.26 -1.08, 10.37 -2.02, 18.34 -1.7 C26.32 -1.39, 42.61 0.29, 47.24 0.98 M1.27 1.22 C3.9 1.23, 9.91 -0.85, 17.47 -0.75 C25.03 -0.65, 41.89 1.67, 46.63 1.82" stroke="#000000" stroke-width="1" fill="none"></path></g></g><mask></mask><g stroke-linecap="round"><g transform="translate(533.5727848569422 556.3613790256668) rotate(0 23.522284339695773 0.17693599022260287)"><path d="M-0.92 0.15 C0.37 0.54, 3.95 1.99, 6.98 1.73 C10.01 1.48, 10.54 -1.25, 17.29 -1.4 C24.03 -1.55, 42.65 0.25, 47.44 0.83 M0.8 -0.82 C2.51 -0.76, 5.96 -0.28, 9.11 -0.23 C12.26 -0.18, 13.23 -0.78, 19.7 -0.51 C26.18 -0.24, 43.28 0.86, 47.96 1.39" stroke="#000000" stroke-width="1" fill="none"></path></g></g><mask></mask><g transform="translate(487.40997314453125 615.7979058529636) rotate(0 76.68992614746094 25)"><text x="0" y="0" font-family="Virgil, Segoe UI Emoji" font-size="20px" fill="#000000" text-anchor="start" style="white-space: pre;" direction="ltr" dominant-baseline="text-before-edge">Real-Time </text><text x="0" y="25" font-family="Virgil, Segoe UI Emoji" font-size="20px" fill="#000000" text-anchor="start" style="white-space: pre;" direction="ltr" dominant-baseline="text-before-edge">Limits Snapshot</text></g><g stroke-linecap="round" transform="translate(228.25425173772396 95.7671555607061) rotate(0 27.81460987140801 25.60069298867583)"><path d="M15.3 3.57 C20.31 0.97, 28.33 0.33, 33.97 1.3 C39.61 2.27, 45.61 5.24, 49.13 9.38 C52.65 13.52, 55.31 20.63, 55.09 26.12 C54.87 31.61, 51.7 38.13, 47.83 42.32 C43.96 46.51, 37.81 50.54, 31.88 51.29 C25.96 52.03, 17.52 49.81, 12.3 46.77 C7.08 43.73, 2.25 38.11, 0.58 33.07 C-1.1 28.04, -0.84 21.79, 2.24 16.56 C5.31 11.34, 15.93 4.41, 19.03 1.74 C22.14 -0.93, 20.95 0.06, 20.85 0.54 M33.31 1.72 C39.15 2.78, 46.92 7.41, 50.76 11.54 C54.6 15.68, 56.81 21.2, 56.37 26.54 C55.93 31.88, 52.32 39.62, 48.12 43.61 C43.91 47.59, 37.39 49.96, 31.15 50.44 C24.9 50.91, 15.73 49.54, 10.63 46.45 C5.53 43.35, 1.94 37.07, 0.54 31.87 C-0.87 26.68, -0.11 19.94, 2.21 15.25 C4.53 10.56, 9.08 5.99, 14.45 3.72 C19.83 1.45, 31.3 2.11, 34.47 1.64 C37.64 1.16, 33.55 0.71, 33.49 0.88" stroke="#000000" stroke-width="2" fill="none"></path></g><g stroke-linecap="round"><g transform="translate(252.9041004342232 146.68476478906825) rotate(0 -1.8559499884013348 30.642252314348696)"><path d="M0.02 -1.13 C-0.53 9.34, -3.3 51.73, -3.73 62.42 M-1.43 0.89 C-1.57 11.02, -1.24 50.44, -1.54 60.48" stroke="#000000" stroke-width="2" fill="none"></path></g></g><mask></mask><g stroke-linecap="round"><g transform="translate(250.41794082021602 210.34753093018492) rotate(0 11.891678621655899 19.32273933213324)"><path d="M-1.13 -1 C3.09 5.33, 20.48 31.56, 24.92 38.02 M0.47 1.09 C4.61 7.64, 20.03 33.32, 24.15 39.64" stroke="#000000" stroke-width="2" fill="none"></path></g></g><mask></mask><g stroke-linecap="round"><g transform="translate(249.16253001169252 209.05303261040444) rotate(0 -11.642097955171806 17.204425597757023)"><path d="M-1 0.35 C-4.85 6.36, -19.38 29.19, -23.1 34.93 M0.68 -0.52 C-3.32 5.26, -19.82 27.73, -23.96 33.29" stroke="#000000" stroke-width="2" fill="none"></path></g></g><mask></mask><g stroke-linecap="round"><g transform="translate(218.969892681607 181.95726989220918) rotate(0 16.23566725928407 -10.363675653331654)"><path d="M0.35 0.17 C6.1 -3.15, 27.92 -17.22, 33.4 -20.89 M-0.93 -0.79 C4.84 -3.83, 27.3 -16.02, 32.94 -19.4" stroke="#000000" stroke-width="2" fill="none"></path></g></g><mask></mask><g stroke-linecap="round"><g transform="translate(253.2900054881718 161.75345363705344) rotate(0 9.672007358664047 13.511928210831144)"><path d="M0.17 0.92 C3.76 5.3, 17.31 22.67, 20.55 26.67 M-1.21 0.35 C2.31 4.37, 15.7 20.72, 19.56 24.96" stroke="#000000" stroke-width="2" fill="none"></path></g></g><mask></mask><g transform="translate(188.52003479003906 251.6667022705078) rotate(0 60.88993835449219 25)"><text x="60.88993835449219" y="0" font-family="Virgil, Segoe UI Emoji" font-size="20px" fill="#000000" text-anchor="middle" style="white-space: pre;" direction="ltr" dominant-baseline="text-before-edge">Transmission</text><text x="60.88993835449219" y="25" font-family="Virgil, Segoe UI Emoji" font-size="20px" fill="#000000" text-anchor="middle" style="white-space: pre;" direction="ltr" dominant-baseline="text-before-edge">Owner</text></g><g stroke-linecap="round" transform="translate(175.75425173772396 402.7169289156068) rotate(0 27.81460987140801 25.60069298867586)"><path d="M20.69 1.47 C25.89 -0.06, 34 1.23, 39.57 3.55 C45.14 5.87, 51.49 10.38, 54.1 15.38 C56.72 20.38, 56.92 28.36, 55.27 33.55 C53.63 38.73, 49.41 43.64, 44.21 46.5 C39.02 49.37, 30.24 51.11, 24.1 50.73 C17.95 50.35, 11.49 48.05, 7.32 44.23 C3.16 40.41, -0.56 33.55, -0.9 27.8 C-1.23 22.06, 0.79 14.39, 5.33 9.77 C9.86 5.15, 21.66 1.54, 26.31 0.07 C30.95 -1.39, 32.96 0.7, 33.19 0.98 M36.73 2.73 C41.91 3.79, 47.05 7.04, 50.06 11.31 C53.08 15.58, 55.17 22.83, 54.82 28.36 C54.47 33.88, 52.43 40.86, 47.96 44.47 C43.48 48.08, 34.05 49.6, 27.97 50 C21.88 50.41, 16.14 49.97, 11.46 46.89 C6.78 43.81, 1.27 37.01, -0.12 31.54 C-1.51 26.06, 0.29 18.89, 3.11 14.05 C5.93 9.21, 11.41 4.59, 16.82 2.48 C22.23 0.38, 32.49 1.56, 35.57 1.42 C38.65 1.27, 35.55 0.99, 35.31 1.61" stroke="#000000" stroke-width="2" fill="none"></path></g><g stroke-linecap="round"><g transform="translate(200.4041004342232 453.63453814396905) rotate(0 -0.9998119555170035 31.169637549181402)"><path d="M0.28 -0.58 C-0.18 9.76, -1.23 52.34, -1.81 62.92 M-1.03 1.73 C-1.65 11.66, -1.74 51.36, -2.28 61.25" stroke="#000000" stroke-width="2" fill="none"></path></g></g><mask></mask><g stroke-linecap="round"><g transform="translate(197.91794082021602 517.2973042850858) rotate(0 12.419063856488663 19.472021858111304)"><path d="M-0.58 0.92 C3.51 7.09, 21.09 31.27, 25.42 37.33 M1.31 0.35 C5.24 6.66, 20.95 32.27, 24.92 38.59" stroke="#000000" stroke-width="2" fill="none"></path></g></g><mask></mask><g stroke-linecap="round"><g transform="translate(196.66253001169252 516.0028059653055) rotate(0 -12.048459120577064 17.559877161353768)"><path d="M0.92 0.85 C-3.1 6.76, -19.66 29.15, -23.79 34.87 M-0.06 0.25 C-4.3 5.88, -20.87 27.68, -25.01 33.2" stroke="#000000" stroke-width="2" fill="none"></path></g></g><mask></mask><g stroke-linecap="round"><g transform="translate(166.469892681607 488.90704324710975) rotate(0 16.591118822880816 -9.780728947909324)"><path d="M0.85 -0.52 C6.5 -4.24, 27.88 -18.17, 33.35 -21.38 M-0.16 1.82 C5.46 -1.83, 27.25 -16.24, 32.85 -20.14" stroke="#000000" stroke-width="2" fill="none"></path></g></g><mask></mask><g stroke-linecap="round"><g transform="translate(200.7900054881718 468.703226991954) rotate(0 9.771520127885395 13.645598196363892)"><path d="M-0.52 0.86 C2.67 5.22, 16.37 22.82, 20.07 27.03 M1.4 0.26 C4.31 4.25, 15.48 20.96, 18.82 25.5" stroke="#000000" stroke-width="2" fill="none"></path></g></g><mask></mask><g transform="translate(157.58001708984375 558.6164756254088) rotate(0 39.3299560546875 25)"><text x="39.3299560546875" y="0" font-family="Virgil, Segoe UI Emoji" font-size="20px" fill="#000000" text-anchor="middle" style="white-space: pre;" direction="ltr" dominant-baseline="text-before-edge">Ratings</text><text x="39.3299560546875" y="25" font-family="Virgil, Segoe UI Emoji" font-size="20px" fill="#000000" text-anchor="middle" style="white-space: pre;" direction="ltr" dominant-baseline="text-before-edge">Provider</text></g><g transform="translate(720.6499938964844 245.6667022705078) rotate(0 40.259979248046875 12.5)"><text x="40.259979248046875" y="0" font-family="Virgil, Segoe UI Emoji" font-size="20px" fill="#000000" text-anchor="middle" style="white-space: pre;" direction="ltr" dominant-baseline="text-before-edge">TROLIE</text></g><g stroke-linecap="round" transform="translate(668.8855587906326 54.56583434649178) rotate(0 48.02441435389869 47.100867924016)"><path d="M-1.24 -0.98 L97.17 0.26 L96.18 93.36 L1.73 92.54" stroke="none" stroke-width="0" fill="#eeeeee"></path><path d="M1.95 -1.61 C27.45 -2.13, 56.49 0.69, 94.59 -0.95 M-0.2 0.43 C22.17 -0.76, 46.35 0.02, 95.64 -0.52 M96.23 -1.46 C93.92 25.28, 95.52 52.48, 94.94 95.15 M95.8 -0.22 C96.81 24.01, 96.87 47.9, 96.91 93.73 M94.47 95.95 C73.83 93.38, 47.18 96.21, 0.28 92.36 M95.53 94.07 C61.1 93.63, 25.92 93.89, -0.37 93.32 M0.75 95.33 C1.06 71.31, -1.41 51.54, 0.26 0.69 M-0.09 94.27 C0.92 63.7, 0.74 35.4, 0.16 0.08" stroke="#000000" stroke-width="1" fill="none"></path></g><g transform="translate(686.8354187011721 81.58296940443665) rotate(0 30.074554443359375 19)"><text x="30.074554443359375" y="0" font-family="Virgil, Segoe UI Emoji" font-size="14.876839160052583px" fill="#000000" text-anchor="middle" style="white-space: pre;" direction="ltr" dominant-baseline="text-before-edge">Model</text><text x="30.074554443359375" y="19" font-family="Virgil, Segoe UI Emoji" font-size="14.876839160052583px" fill="#000000" text-anchor="middle" style="white-space: pre;" direction="ltr" dominant-baseline="text-before-edge">Manager</text></g><g stroke-linecap="round" transform="translate(783.9099731445312 594.6667022705078) rotate(0 79 52)"><path d="M26 0 M26 0 C46.61 -1.95, 68.76 1.06, 132 0 M132 0 C148.17 1.2, 158.17 8.38, 158 26 M158 26 C159.69 39.43, 159.05 50.83, 158 78 M158 78 C159.07 96.67, 149.37 105.2, 132 104 M132 104 C101.34 104.2, 66.3 105.66, 26 104 M26 104 C6.94 104.95, 0.56 94.26, 0 78 M0 78 C-0.83 66.79, 1.33 51.92, 0 26 M0 26 C-1.03 7.01, 9.07 -1.12, 26 0" stroke="#000000" stroke-width="1.5" fill="none" stroke-dasharray="1.5 7"></path></g><g transform="translate(815.0900115966797 621.6667022705078) rotate(0 43.81996154785156 25)"><text x="43.81996154785156" y="0" font-family="Virgil, Segoe UI Emoji" font-size="20px" fill="#000000" text-anchor="middle" style="white-space: pre;" direction="ltr" dominant-baseline="text-before-edge">Forecast</text><text x="43.81996154785156" y="25" font-family="Virgil, Segoe UI Emoji" font-size="20px" fill="#000000" text-anchor="middle" style="white-space: pre;" direction="ltr" dominant-baseline="text-before-edge">Window</text></g><g stroke-linecap="round" transform="translate(692.909952799479 238.0000559488932) rotate(0 156.33336385091138 277.5)"><path d="M32 0 M32 0 C107.85 1.5, 183.55 2.46, 280.67 0 M32 0 C93.25 -1.13, 154.32 -1.1, 280.67 0 M280.67 0 C303.7 -1.82, 311.42 8.84, 312.67 32 M280.67 0 C301.72 1.03, 313.09 8.72, 312.67 32 M312.67 32 C311.48 184.58, 311.49 336.27, 312.67 523 M312.67 32 C313.86 206.38, 313.93 380.49, 312.67 523 M312.67 523 C311.46 546.03, 301.35 556.21, 280.67 555 M312.67 523 C310.81 543.16, 302.61 555.96, 280.67 555 M280.67 555 C224.02 553.47, 164.09 554.05, 32 555 M280.67 555 C202.14 553.51, 122.75 552.37, 32 555 M32 555 C9.75 556.74, -1.36 546.13, 0 523 M32 555 C10.5 553.38, -1.02 545.59, 0 523 M0 523 C1.24 345.15, 0.92 167.07, 0 32 M0 523 C1.81 345.98, 1.51 169.14, 0 32 M0 32 C-0.73 9.27, 10.55 1.55, 32 0 M0 32 C0.29 11.14, 9.79 0.65, 32 0" stroke="#000000" stroke-width="1" fill="none"></path></g><g transform="translate(1048.0236155192058 22.833376566569086) rotate(0 105.21989440917969 12.5)"><text x="105.21989440917969" y="0" font-family="Virgil, Segoe UI Emoji" font-size="20px" fill="#000000" text-anchor="middle" style="white-space: pre;" direction="ltr" dominant-baseline="text-before-edge">Transmission Provider</text></g><g mask="url(#mask-DUMvvqiEDFuLzsVhKHqxa)" stroke-linecap="round"><g transform="translate(291.47441617582984 132.9180748053085) rotate(0 184.06657893974304 -11.274679482609628)"><path d="M0 0.79 C61.46 -2.92, 308.09 -17.93, 369.6 -21.58 M-1.46 0.15 C59.79 -3.95, 307.14 -19.5, 368.73 -23.34" stroke="#000000" stroke-width="1" fill="none"></path></g><g transform="translate(291.47441617582984 132.9180748053085) rotate(0 184.06657893974304 -11.274679482609628)"><path d="M342.55 -11.06 C352.42 -16.38, 363.25 -20.77, 369.99 -24.78 M341.1 -11.76 C347.15 -13.06, 352.45 -15.82, 369.17 -22.36" stroke="#000000" stroke-width="1" fill="none"></path></g><g transform="translate(291.47441617582984 132.9180748053085) rotate(0 184.06657893974304 -11.274679482609628)"><path d="M341.27 -31.54 C351.72 -29.35, 363.02 -26.22, 369.99 -24.78 M339.81 -32.24 C345.98 -29.28, 351.55 -27.77, 369.17 -22.36" stroke="#000000" stroke-width="1" fill="none"></path></g></g><mask id="mask-DUMvvqiEDFuLzsVhKHqxa"><rect x="0" y="0" fill="#fff" width="760.9099731445312" height="255.1987334519212"></rect><rect x="382.50228377150876" y="94.77774548200216" fill="#000" width="187.37982177734375" height="54" opacity="1"></rect></mask><g transform="translate(382.5022837715087 94.77774548200216) rotate(0 93.03871134406418 26.865649840696705)"><text x="93.68991088867188" y="0" font-family="Virgil, Segoe UI Emoji" font-size="20px" fill="#000000" text-anchor="middle" style="white-space: pre;" direction="ltr" dominant-baseline="text-before-edge">designates</text><text x="93.68991088867188" y="27" font-family="Virgil, Segoe UI Emoji" font-size="20px" fill="#000000" text-anchor="middle" style="white-space: pre;" direction="ltr" dominant-baseline="text-before-edge">Ratings Provider(s)</text></g><g stroke-linecap="round" transform="translate(402.0419439596303 287.30949422376625) rotate(0 35.339290345615666 53.625409397054625)"><path d="M-0.1 0.65 L68.79 -1.46 L69.51 105.33 L-0.71 106.01" stroke="none" stroke-width="0" fill="#fff"></path><path d="M-1.16 -0.36 C27.1 0.27, 52.47 0.98, 72.61 1.03 M-0.86 0.2 C27.25 0.75, 55.19 -0.6, 71.32 -0.53 M71.45 1.07 C70.32 22.86, 71.35 46.91, 70.77 107.12 M71.57 -0.69 C70.75 22.55, 70.12 46.19, 71.47 106.65 M71.68 108.01 C56.88 105.73, 39.88 108.11, -0.85 106.89 M69.76 107.52 C53.91 106.99, 37.06 108.37, 0.42 107.08 M-1.08 105.43 C0.37 78.14, -1.7 48.05, -0.34 -1.7 M-0.12 107.33 C1.88 80.89, 1.26 53.7, 0.07 0.58" stroke="#000000" stroke-width="2" fill="none"></path></g><g stroke-linecap="round" transform="translate(394.4945109239161 280.2894049380516) rotate(0 35.339290345615666 53.625409397054625)"><path d="M0.65 -1.89 L69.21 -1.17 L68.75 106.54 L-1.24 108.37" stroke="none" stroke-width="0" fill="#fff"></path><path d="M-0.36 1.75 C14.67 2.19, 29.69 2.34, 71.71 1.92 M0.2 -0.73 C19.22 -0.15, 36.72 1.25, 70.15 -0.82 M71.75 0.04 C70.39 29.22, 71.03 56.39, 70.54 105.57 M69.99 0.46 C69.35 28.19, 69.82 57.53, 70.08 106.37 M71.44 108.42 C51.82 106.75, 36.95 106.76, -0.36 105.9 M70.95 106.91 C55.29 105.83, 41.91 107.03, -0.17 106.94 M-1.82 108.58 C-1.26 64.77, -2.52 23.44, -1.7 -0.99 M0.08 108.2 C0.52 84.77, 0.17 61.71, 0.58 -0.05" stroke="#000000" stroke-width="2" fill="none"></path></g><g stroke-linecap="round" transform="translate(385.09942163820074 272.03549868805203) rotate(0 35.339290345615666 53.625409397054625)"><path d="M-1.89 -1.46 L69.51 -1.92 L69.97 106.01 L1.11 108.29" stroke="none" stroke-width="0" fill="#fff"></path><path d="M1.75 0.37 C24.06 1.22, 46.48 1.16, 72.59 -0.67 M-0.73 0.37 C16.68 -1.12, 35.52 -0.67, 69.86 -0.38 M70.72 -0.55 C72.16 34.87, 71.19 69.43, 69 106.54 M71.13 -0.63 C71.45 25, 72.42 49.71, 69.8 106.69 M71.85 105.63 C47.64 108.28, 25.46 107.16, -1.35 105.43 M70.33 106.62 C44.97 108.19, 21.22 107.27, -0.31 108.14 M1.33 106.97 C-0.17 63.68, 0.24 21.47, -0.99 -1.75 M0.95 107.74 C0.45 75.47, 0.2 43.98, -0.05 0.33" stroke="#000000" stroke-width="2" fill="none"></path></g><g stroke-linecap="round"><g transform="translate(397.0858482251117 320.78273573540446) rotate(0 23.940283326454846 -1.77460308617421)"><path d="M1.05 0.22 C8.08 0.4, 33.71 1.26, 41.49 0.81 C49.27 0.36, 46.7 -1.76, 47.74 -2.47 M0.14 -0.7 C7.17 -0.86, 33.2 -0.33, 41.11 -0.97 C49.01 -1.6, 46.94 -4.22, 47.58 -4.49" stroke="#000000" stroke-width="1" fill="none"></path></g></g><mask></mask><g stroke-linecap="round"><g transform="translate(398.9411004631261 289.31744843656634) rotate(0 22.535057865337308 -1.0561880001506552)"><path d="M0.22 1.07 C3.17 0.62, 9.83 -1.6, 17.49 -1.65 C25.15 -1.69, 41.57 0.71, 46.19 0.82 M-1.12 0.58 C1.75 0.35, 9.07 -2.91, 16.88 -3.16 C24.69 -3.41, 41.03 -1.41, 45.75 -0.92" stroke="#000000" stroke-width="1" fill="none"></path></g></g><mask></mask><g stroke-linecap="round"><g transform="translate(398.8645009467566 356.71182270692316) rotate(0 23.934323163518172 0.01409835078334254)"><path d="M1.07 0.66 C5.49 0.68, 21.29 0.15, 27.57 0.36 C33.85 0.57, 35.42 2.48, 38.77 1.92 C42.12 1.35, 46.06 -2.21, 47.7 -3 M0.17 -0.05 C4.44 -0.39, 20.82 -1.94, 27.23 -1.43 C33.64 -0.92, 35.21 3.19, 38.61 3.02 C42 2.86, 46.17 -1.45, 47.61 -2.44" stroke="#000000" stroke-width="1" fill="none"></path></g></g><mask></mask><g stroke-linecap="round"><g transform="translate(395.6804537652263 367.95497111520217) rotate(0 27.40260180046971 0.12149115490910845)"><path d="M0.66 1.16 C2.42 0.98, 8.27 0.42, 10.79 -0.02 C13.3 -0.46, 9.99 -1.63, 15.73 -1.48 C21.47 -1.34, 38.93 0.92, 45.23 0.86 C51.53 0.8, 52.16 -1.13, 53.53 -1.85 M-0.46 0.72 C1.18 0.75, 7.63 -1.33, 10.16 -1.54 C12.7 -1.74, 8.96 -1.1, 14.75 -0.5 C20.55 0.11, 38.18 2.21, 44.93 2.09 C51.68 1.97, 53.68 -0.64, 55.27 -1.23" stroke="#000000" stroke-width="1" fill="none"></path></g></g><mask></mask><g stroke-linecap="round"><g transform="translate(395.9652966607921 304.3780499898271) rotate(0 23.298319999269722 0.3163027468000621)"><path d="M1.16 0.62 C4.2 0.35, 11.82 -1.03, 19.34 -0.99 C26.87 -0.95, 41.65 0.52, 46.29 0.85 M0.31 -0.1 C3.2 -0.26, 11.52 0.05, 19 0.34 C26.48 0.62, 40.43 1.4, 45.19 1.62" stroke="#000000" stroke-width="1" fill="none"></path></g></g><mask></mask><g stroke-linecap="round"><g transform="translate(396.07278485694246 338.8613790256668) rotate(0 22.771117182254386 1.6426716244637305)"><path d="M0.62 1.15 C1.79 1.09, 4.94 1.04, 7.69 0.79 C10.45 0.54, 10.77 -0.6, 17.16 -0.35 C23.55 -0.09, 41.25 2.15, 46.06 2.33 M-0.51 0.71 C0.41 1.3, 3.2 1.93, 6.54 1.99 C9.87 2.06, 12.96 0.82, 19.51 1.1 C26.06 1.38, 41.14 3.77, 45.84 3.66" stroke="#000000" stroke-width="1" fill="none"></path></g></g><mask></mask><g transform="translate(353.90997314453125 398.2979058529636) rotate(0 103.1799087524414 25)"><text x="0" y="0" font-family="Virgil, Segoe UI Emoji" font-size="20px" fill="#000000" text-anchor="start" style="white-space: pre;" direction="ltr" dominant-baseline="text-before-edge">Alternative Recourse</text><text x="0" y="25" font-family="Virgil, Segoe UI Emoji" font-size="20px" fill="#000000" text-anchor="start" style="white-space: pre;" direction="ltr" dominant-baseline="text-before-edge">Ratings</text></g><g mask="url(#mask-ZGbB0xdMOazF-jWjVhaKr)" stroke-linecap="round"><g transform="translate(775.9099731445312 102.66670227050781) rotate(0 89.77617708189388 58.50416618752669)"><path d="M-0.11 0.78 C27.34 -0.25, 137.19 -26.83, 165.81 -4.98 C194.44 16.86, 170.5 109.25, 171.64 131.84 M-1.63 0.14 C26.07 -0.7, 139.2 -28.17, 167.9 -6.57 C196.6 15.04, 169.71 106.8, 170.6 129.77" stroke="#000000" stroke-width="1" fill="none"></path></g><g transform="translate(775.9099731445312 102.66670227050781) rotate(0 89.77617708189388 58.50416618752669)"><path d="M165.22 98.54 C168.53 111.11, 170.31 124.32, 169.32 129.2 M163.59 100.93 C164.55 106.28, 166.69 112.67, 170.97 129.56" stroke="#000000" stroke-width="1" fill="none"></path></g><g transform="translate(775.9099731445312 102.66670227050781) rotate(0 89.77617708189388 58.50416618752669)"><path d="M185.58 101.1 C180.88 112.64, 174.67 124.85, 169.32 129.2 M183.95 103.49 C180.66 108.49, 178.55 114.35, 170.97 129.56" stroke="#000000" stroke-width="1" fill="none"></path></g></g><mask id="mask-ZGbB0xdMOazF-jWjVhaKr"><rect x="0" y="0" fill="#fff" width="1048.0947668723638" height="339.99150815784407"></rect><rect x="836.0400619506836" y="42.66670227050781" fill="#000" width="213.7398223876953" height="108" opacity="1"></rect></mask><g transform="translate(836.0400619506836 42.66670227050781) rotate(0 29.646088275741533 118.50416618752669)"><text x="106.86991119384766" y="0" font-family="Virgil, Segoe UI Emoji" font-size="20px" fill="#000000" text-anchor="middle" style="white-space: pre;" direction="ltr" dominant-baseline="text-before-edge">Ratings Requirements,</text><text x="106.86991119384766" y="27" font-family="Virgil, Segoe UI Emoji" font-size="20px" fill="#000000" text-anchor="middle" style="white-space: pre;" direction="ltr" dominant-baseline="text-before-edge">Permissions, </text><text x="106.86991119384766" y="54" font-family="Virgil, Segoe UI Emoji" font-size="20px" fill="#000000" text-anchor="middle" style="white-space: pre;" direction="ltr" dominant-baseline="text-before-edge">Precoordinated</text><text x="106.86991119384766" y="81" font-family="Virgil, Segoe UI Emoji" font-size="20px" fill="#000000" text-anchor="middle" style="white-space: pre;" direction="ltr" dominant-baseline="text-before-edge">Seasonal Ratings</text></g><g mask="url(#mask-tBNjRAXS_rJt-IT4LszQD)" stroke-linecap="round"><g transform="translate(179.52003479003906 279.6974814834631) rotate(0 -62.775446873304986 136.52117929427567)"><path d="M-0.75 -1.16 C-21.47 20.16, -120.24 81.13, -124.64 127.02 C-129.04 172.91, -43.17 249.72, -27.13 274.2" stroke="#000000" stroke-width="1.5" fill="none" stroke-dasharray="8 9"></path></g><g transform="translate(179.52003479003906 279.6974814834631) rotate(0 -62.775446873304986 136.52117929427567)"><path d="M-55.17 259.38 C-46.09 264.08, -39.54 266.01, -28.17 275.33" stroke="#000000" stroke-width="1.5" fill="none"></path></g><g transform="translate(179.52003479003906 279.6974814834631) rotate(0 -62.775446873304986 136.52117929427567)"><path d="M-39.57 246.05 C-34.87 254.31, -32.6 259.9, -28.17 275.33" stroke="#000000" stroke-width="1.5" fill="none"></path></g></g><mask id="mask-tBNjRAXS_rJt-IT4LszQD"><rect x="0" y="0" fill="#fff" width="404.1300964355469" height="654.220402970531"></rect><rect x="10" y="393.1667022705078" fill="#000" width="89.8199462890625" height="27" opacity="1"></rect></mask><g transform="translate(10 393.1667022705078) rotate(0 106.74458791673408 23.05195850723095)"><text x="44.90997314453125" y="0" font-family="Virgil, Segoe UI Emoji" font-size="20px" fill="#000000" text-anchor="middle" style="white-space: pre;" direction="ltr" dominant-baseline="text-before-edge">may be a</text></g><g stroke-linecap="round"><g transform="translate(191.06892264428814 622.1178421915531) rotate(0 338.8999862179733 172.41439764728437)"><path d="M-0.69 0.18 C21.12 56.93, 18.34 312.59, 131.15 341.08 C243.97 369.57, 585.1 199.51, 676.2 171.1 M1.14 -0.77 C22.81 56.11, 17.57 314.19, 130.46 342.49 C243.35 370.78, 587.2 197.45, 678.49 168.99" stroke="#1e1e1e" stroke-width="1" fill="none"></path></g><g transform="translate(191.06892264428814 622.1178421915531) rotate(0 338.8999862179733 172.41439764728437)"><path d="M656.49 189.86 C662.89 180.78, 671.26 176.87, 678.43 169.67 M655.76 188.65 C664.6 181.6, 673.75 172.76, 677.7 169.01" stroke="#1e1e1e" stroke-width="1" fill="none"></path></g><g transform="translate(191.06892264428814 622.1178421915531) rotate(0 338.8999862179733 172.41439764728437)"><path d="M648.82 170.83 C657.8 167.96, 668.65 170.22, 678.43 169.67 M648.09 169.62 C659.95 169.97, 672.11 168.59, 677.7 169.01" stroke="#1e1e1e" stroke-width="1" fill="none"></path></g></g><mask></mask><g stroke-linecap="round" transform="translate(227.9808998680785 839.0939064429881) rotate(0 35.339290345615666 53.62540939705457)"><path d="M1.43 -1.16 L70.07 1.9 L69.69 106.75 L1.43 108.1" stroke="none" stroke-width="0" fill="#fff"></path><path d="M0.71 0.63 C21.58 2.24, 45.83 1.51, 69.77 -0.96 M-0.48 0.87 C15.07 0.01, 30.53 0.21, 69.86 0.57 M69.1 0.73 C71.13 31.79, 68.56 65.08, 70.73 108.61 M69.71 -0.76 C68.97 23.81, 70.33 47.48, 70.62 107.22 M72.12 105.29 C49.73 105.35, 28.72 107.51, 0.32 107.57 M70.38 106.35 C54.96 108.75, 41.55 106.78, -0.58 107.98 M0.72 107.32 C-0.78 70.65, 1.7 31.92, 0.16 -0.99 M0.35 108.19 C-0.56 65.5, -1.34 23.44, 0.43 -0.61" stroke="#000000" stroke-width="2" fill="none"></path></g><g stroke-linecap="round" transform="translate(220.43346683236427 832.0738171572739) rotate(0 35.339290345615666 53.62540939705457)"><path d="M-0.61 1.9 L69.69 -0.5 L72.11 108.1 L0.53 106.22" stroke="none" stroke-width="0" fill="#fff"></path><path d="M-1.78 1.87 C16.61 0.92, 34.08 -1.18, 68.96 -1.82 M-0.07 -0.21 C19.26 -0.63, 37.19 -0.05, 70.76 -0.8 M72 -1.22 C68.58 41.44, 69.88 86.1, 69.05 105.31 M70.01 0.37 C70.33 37.07, 69.58 72.91, 70.59 108.04 M70.32 105.78 C53 107.25, 37.18 106.88, -1.8 107.74 M69.81 108.22 C44.8 105.62, 17.22 107.34, 0.43 106.92 M-1.14 107.45 C0.96 77.86, -0.22 50.93, 1.9 1.03 M-0.01 107.84 C-1.16 66.39, 0.06 23.17, 0.71 -0.58" stroke="#000000" stroke-width="2" fill="none"></path></g><g stroke-linecap="round" transform="translate(211.03837754664892 823.8199109072743) rotate(0 35.339290345615666 53.62540939705457)"><path d="M-0.99 -0.5 L72.11 0.85 L71.21 106.22 L-1.15 108.08" stroke="none" stroke-width="0" fill="#fff"></path><path d="M-0.88 1.14 C22.53 -1.62, 45.15 -2.48, 70.06 -0.96 M0.26 -0.01 C26.57 0.72, 54.85 -0.66, 71.63 -0.79 M69.43 -0.93 C71.43 37.46, 69.76 70.26, 71.48 105.32 M71.36 0.6 C69.9 23.98, 69.87 48.82, 70.07 107.97 M69.91 107.94 C56.71 107.05, 40.3 107.22, 1.48 106.66 M71.24 106.25 C55.27 108.67, 41.45 107.61, -0.42 107.61 M1.34 105.52 C0.78 73.7, 2.51 43.16, 1.78 0.69 M-0.79 108.12 C0.43 64.37, 0.72 22.14, -0.3 0.95" stroke="#000000" stroke-width="2" fill="none"></path></g><g stroke-linecap="round"><g transform="translate(223.02480413355988 872.5671479546268) rotate(0 23.697752373059643 -0.8371200307495883)"><path d="M0.68 -0.54 C7.14 -0.6, 32.38 -0.39, 39.85 -0.87 C47.32 -1.36, 44.46 -3.27, 45.49 -3.47 M-0.42 1.78 C5.73 1.89, 30.56 0.81, 38.6 0.12 C46.64 -0.56, 46.59 -1.65, 47.81 -2.34" stroke="#000000" stroke-width="1" fill="none"></path></g></g><mask></mask><g stroke-linecap="round"><g transform="translate(224.88005637157426 841.1018606557882) rotate(0 22.209698805555576 -1.0807089973554866)"><path d="M-0.57 -1.03 C1.94 -1.47, 8.15 -3.47, 15.74 -3.18 C23.34 -2.88, 40.04 0.29, 44.99 0.72 M1.32 1.04 C4.13 0.82, 10.78 -1.48, 17.88 -1.83 C24.98 -2.19, 39.29 -1.44, 43.93 -1.07" stroke="#000000" stroke-width="1" fill="none"></path></g></g><mask></mask><g stroke-linecap="round"><g transform="translate(224.8034568552048 908.4962349261455) rotate(0 23.981639101329677 0.6359039725934963)"><path d="M-1.09 -0.37 C3.31 -0.07, 19.4 0.39, 25.84 0.79 C32.28 1.2, 33.74 2.52, 37.54 2.06 C41.34 1.6, 47.01 -1.42, 48.65 -1.98 M0.54 -1.61 C4.78 -1.53, 18.56 -1.59, 24.59 -0.78 C30.62 0.03, 32.65 3.26, 36.73 3.25 C40.81 3.23, 47 -0.25, 49.05 -0.88" stroke="#000000" stroke-width="1" fill="none"></path></g></g><mask></mask><g stroke-linecap="round"><g transform="translate(221.61940967367445 919.739383334424) rotate(0 26.96310786121711 -1.0174996566296386)"><path d="M-0.57 1.05 C1.29 0.88, 7.25 -1.1, 10.09 -1.42 C12.92 -1.74, 10.57 -1.3, 16.44 -0.85 C22.3 -0.4, 38.93 1.69, 45.28 1.29 C51.62 0.89, 52.79 -2.51, 54.5 -3.26 M1.33 0.55 C3.12 0.6, 6.68 0, 9.09 -0.01 C11.51 -0.03, 9.85 0.61, 15.84 0.46 C21.82 0.31, 38.8 -0.27, 45.01 -0.91 C51.21 -1.55, 51.6 -3.34, 53.08 -3.38" stroke="#000000" stroke-width="1" fill="none"></path></g></g><mask></mask><g stroke-linecap="round"><g transform="translate(221.90425256924027 856.1624622090494) rotate(0 23.37024101335234 0.566951143252254)"><path d="M-0.08 -0.25 C3.1 -0.53, 10.83 -1.07, 18.5 -0.6 C26.17 -0.13, 41.19 2.31, 45.94 2.56 M-1.58 -1.43 C1.52 -0.98, 9.4 0.6, 17.72 0.93 C26.03 1.27, 43.39 0.48, 48.32 0.58" stroke="#000000" stroke-width="1" fill="none"></path></g></g><mask></mask><g stroke-linecap="round"><g transform="translate(222.01174076539064 890.6457912448891) rotate(0 23.540151164011604 0.28053074427350566)"><path d="M0.31 -0.01 C1.51 0.38, 4.11 2.37, 7.11 2.11 C10.11 1.85, 11.46 -1.36, 18.29 -1.56 C25.11 -1.75, 43.22 0.23, 48.07 0.94 M-0.99 -1.06 C0.58 -0.99, 6.21 0.29, 9.31 0.34 C12.4 0.4, 11.58 -0.95, 17.57 -0.75 C23.56 -0.55, 40.5 0.84, 45.25 1.54" stroke="#000000" stroke-width="1" fill="none"></path></g></g><mask></mask><g transform="translate(179.84892905297943 950.0823180721859) rotate(0 149.65988159179688 25)"><text x="0" y="0" font-family="Virgil, Segoe UI Emoji" font-size="20px" fill="#000000" text-anchor="start" style="white-space: pre;" direction="ltr" dominant-baseline="text-before-edge">Real-Time </text><text x="0" y="25" font-family="Virgil, Segoe UI Emoji" font-size="20px" fill="#000000" text-anchor="start" style="white-space: pre;" direction="ltr" dominant-baseline="text-before-edge">Ratings (alternative to ICCP)</text></g><g stroke-linecap="round" transform="translate(820.4022152875173 894.2011755248864) rotate(0 79.33334350585938 59.999999999999886)"><path d="M30 0 M30 0 C54.09 1.75, 80.62 1.26, 128.67 0 M30 0 C67.46 0.01, 104 0.06, 128.67 0 M128.67 0 C149.69 -1.88, 157.63 10.98, 158.67 30 M128.67 0 C147.71 0, 160.66 11.83, 158.67 30 M158.67 30 C156.59 52.86, 159.46 71.56, 158.67 90 M158.67 30 C158.48 41.76, 158.48 56.02, 158.67 90 M158.67 90 C160.34 109.32, 149.82 120.76, 128.67 120 M158.67 90 C159.73 110.66, 150.68 120.79, 128.67 120 M128.67 120 C90.33 117.84, 54.7 119.12, 30 120 M128.67 120 C93.83 119.67, 58.42 119.68, 30 120 M30 120 C9.54 120.99, 0.79 109.78, 0 90 M30 120 C10.11 119.42, -0.29 108.51, 0 90 M0 90 C-0.24 65.93, -0.49 43.73, 0 30 M0 90 C-0.37 76.44, 0.64 62.26, 0 30 M0 30 C-1.65 11.85, 8.68 -1.64, 30 0 M0 30 C0.19 8.92, 9.46 0.34, 30 0" stroke="#1e1e1e" stroke-width="1" fill="none"></path></g><g transform="translate(874.795579240154 941.7011755248861) rotate(0 24.939979553222656 12.5)"><text x="24.939979553222656" y="0" font-family="Virgil, Segoe UI Emoji" font-size="20px" fill="#1e1e1e" text-anchor="middle" style="white-space: pre;" direction="ltr" dominant-baseline="text-before-edge">ICCP</text></g><g stroke-linecap="round" transform="translate(1055.0687090212411 757.2012569050951) rotate(0 79.33334350585938 59.999999999999886)"><path d="M30 0 M30 0 C59.23 -0.79, 89.94 0.53, 128.67 0 M30 0 C54.24 1.44, 79.26 0.52, 128.67 0 M128.67 0 C149.55 -1.89, 158.78 8.66, 158.67 30 M128.67 0 C146.79 0.01, 158.57 11.63, 158.67 30 M158.67 30 C158.18 45.82, 159.83 60.8, 158.67 90 M158.67 30 C159.68 47.63, 158.95 66.17, 158.67 90 M158.67 90 C158.68 110.33, 148.62 119.51, 128.67 120 M158.67 90 C157.42 108.36, 147.89 119.39, 128.67 120 M128.67 120 C92.59 121.25, 59.17 117.7, 30 120 M128.67 120 C103.89 118.91, 78.92 120.47, 30 120 M30 120 C8.72 120.22, -1.78 109.95, 0 90 M30 120 C12.27 120.45, -0.39 108.87, 0 90 M0 90 C1.7 67.26, 0.72 44.16, 0 30 M0 90 C-0.27 72.93, -0.42 54.84, 0 30 M0 30 C0.9 8.05, 8.07 -0.67, 30 0 M0 30 C-1.95 11.7, 9.62 -1.83, 30 0" stroke="#1e1e1e" stroke-width="1" fill="none"></path></g><g transform="translate(1087.332090979249 804.7012569050953) rotate(0 47.06996154785156 12.5)"><text x="47.06996154785156" y="0" font-family="Virgil, Segoe UI Emoji" font-size="20px" fill="#1e1e1e" text-anchor="middle" style="white-space: pre;" direction="ltr" dominant-baseline="text-before-edge">Validation</text></g><g stroke-linecap="round"><g transform="translate(897.7355893109548 893.6178828816571) rotate(0 2.6819552955527115 -51.287160268079845)"><path d="M-0.88 1.19 C0.34 -15.62, 5.02 -84.67, 6.24 -101.99 M0.86 0.77 C1.97 -16.28, 4.29 -86.72, 5.07 -103.76" stroke="#1e1e1e" stroke-width="1" fill="none"></path></g><g transform="translate(897.7355893109548 893.6178828816571) rotate(0 2.6819552955527115 -51.287160268079845)"><path d="M16.21 -75.91 C13.67 -81.76, 10.41 -88.72, 5.74 -105.48 M14.8 -74.55 C10.41 -83.54, 8.19 -94.32, 4.25 -103.31" stroke="#1e1e1e" stroke-width="1" fill="none"></path></g><g transform="translate(897.7355893109548 893.6178828816571) rotate(0 2.6819552955527115 -51.287160268079845)"><path d="M-4.3 -76.7 C-2.46 -82.23, -1.34 -89.02, 5.74 -105.48 M-5.7 -75.35 C-3.54 -84.26, 0.79 -94.78, 4.25 -103.31" stroke="#1e1e1e" stroke-width="1" fill="none"></path></g></g><mask></mask><g stroke-linecap="round"><g transform="translate(1055.0688616091318 809.617842191553) rotate(0 -24.553576813389896 -31.02778750067114)"><path d="M-0.12 0.83 C-8.21 -9.17, -40.85 -50.79, -48.98 -60.96 M-1.65 0.23 C-9.33 -10.06, -39.31 -52.53, -46.79 -62.89" stroke="#1e1e1e" stroke-width="1" fill="none"></path></g><g transform="translate(1055.0688616091318 809.617842191553) rotate(0 -24.553576813389896 -31.02778750067114)"><path d="M-20.68 -47.54 C-27.8 -51.93, -33.02 -56.83, -47.82 -63.35 M-23.03 -45.62 C-30.43 -53.15, -39.78 -58.32, -47.19 -63.28" stroke="#1e1e1e" stroke-width="1" fill="none"></path></g><g transform="translate(1055.0688616091318 809.617842191553) rotate(0 -24.553576813389896 -31.02778750067114)"><path d="M-37.38 -35.62 C-40.03 -43.13, -40.87 -51.15, -47.82 -63.35 M-39.74 -33.71 C-40.84 -45.65, -43.87 -55.33, -47.19 -63.28" stroke="#1e1e1e" stroke-width="1" fill="none"></path></g></g><mask></mask></svg>