<svg version="1.1" xmlns="http://www.w3.org/2000/svg" viewBox="0 0 1143.9099731445312 1058.5" width="1143.9099731445312" height="1058.5">
  <!-- svg-source:excalidraw -->
  
  <defs>
    <style class="style-fonts">
      @font-face {
        font-family: "Virgil";
        src: url("https://excalidraw.com/Virgil.woff2");
      }
      @font-face {
        font-family: "Cascadia";
        src: url("https://excalidraw.com/Cascadia.woff2");
      }
    </style>
  </defs>
  <rect x="0" y="0" width="1143.9099731445312" height="1058.5" fill="#ffffff"></rect><g stroke-linecap="round"><g transform="translate(229.41992187500006 632.9676091805243) rotate(0 283.0578550486499 85.30312878751283)"><path d="M0.06 -0.77 C31.62 27.41, 94.18 153.86, 188.75 168.59 C283.32 183.32, 504.54 101.05, 567.49 87.63 M-1.37 1.44 C30.63 29.79, 96.4 155.04, 191.08 169.63 C285.76 184.23, 504.21 102.97, 566.72 89" stroke="#000000" stroke-width="1" fill="none"></path></g><g transform="translate(229.41992187500006 632.9676091805243) rotate(0 283.0578550486499 85.30312878751283)"><path d="M541.21 105.48 C547.06 102.26, 554.86 96.05, 567.68 87.09 M543.09 106.47 C549.94 101.09, 557.54 96.2, 566.92 88.8" stroke="#000000" stroke-width="1" fill="none"></path></g><g transform="translate(229.41992187500006 632.9676091805243) rotate(0 283.0578550486499 85.30312878751283)"><path d="M535.5 85.77 C542.69 87.48, 551.92 86.2, 567.68 87.09 M537.37 86.76 C545.94 87.57, 555.33 88.84, 566.92 88.8" stroke="#000000" stroke-width="1" fill="none"></path></g></g><mask></mask><g stroke-opacity="0.4" fill-opacity="0.4" stroke-linecap="round" transform="translate(608.9099731445312 10.5) rotate(0 262.5 519)"><path d="M32 0 M32 0 C193.73 0.23, 357.1 0.08, 493 0 M493 0 C513.46 1.53, 526.33 11.79, 525 32 M525 32 C521.77 389.08, 520.54 746.74, 525 1006 M525 1006 C526.39 1026.83, 514.22 1037.09, 493 1038 M493 1038 C379.86 1035.88, 266.33 1037.39, 32 1038 M32 1038 C12.41 1039.74, -1.7 1027.83, 0 1006 M0 1006 C2.6 660.94, 2.85 316.15, 0 32 M0 32 C-1.17 10.62, 9.89 0.71, 32 0" stroke="#495057" stroke-width="1.5" fill="none" stroke-dasharray="8 9"></path></g><g stroke-linecap="round"><g transform="translate(807.9099731445312 509.5) rotate(0 -279.75944493318906 51.90808639773235)"><path d="M-1.1 0.62 C-44.98 12.96, -169.56 56.46, -262.61 73.68 C-355.66 90.9, -509.76 99.09, -559.41 103.92 M0.52 -0.1 C-43.54 12.45, -169.93 58.06, -263.35 75.05 C-356.78 92.04, -510.48 97.13, -560.04 101.83" stroke="#000000" stroke-width="1" fill="none"></path></g><g transform="translate(807.9099731445312 509.5) rotate(0 -279.75944493318906 51.90808639773235)"><path d="M-531.57 90.33 C-542.93 94.19, -551.32 96.67, -561.39 100.02 M-532.49 90.35 C-541.55 94.74, -552.47 97.77, -559.37 101.75" stroke="#000000" stroke-width="1" fill="none"></path></g><g transform="translate(807.9099731445312 509.5) rotate(0 -279.75944493318906 51.90808639773235)"><path d="M-530.18 110.81 C-541.97 107.37, -550.85 102.57, -561.39 100.02 M-531.09 110.82 C-540.76 107.93, -552.17 103.7, -559.37 101.75" stroke="#000000" stroke-width="1" fill="none"></path></g></g><mask></mask><g stroke-linecap="round"><g transform="translate(238.90997314453125 435.5) rotate(0 222.44648490177943 -47.33163036952544)"><path d="M0.43 0.33 C26.57 -12.2, 83.76 -59.3, 157.97 -74.9 C232.18 -90.5, 397.8 -90.06, 445.7 -93.26 M-0.8 -0.54 C25.07 -13.4, 82.66 -60.71, 157.01 -76.45 C231.36 -92.19, 397.16 -92.25, 445.3 -94.99" stroke="#000000" stroke-width="1" fill="none"></path></g><g transform="translate(238.90997314453125 435.5) rotate(0 222.44648490177943 -47.33163036952544)"><path d="M20.41 -22.58 C14.06 -12.27, 6.5 -3.77, 0.9 -1.56 M19.88 -23.06 C16.1 -18.54, 11.55 -12.77, 1.01 0.57" stroke="#000000" stroke-width="1" fill="none"></path></g><g transform="translate(238.90997314453125 435.5) rotate(0 222.44648490177943 -47.33163036952544)"><path d="M30.56 -4.74 C20.16 -1.44, 8.59 0.01, 0.9 -1.56 M30.03 -5.22 C24.02 -4.38, 17.38 -2.29, 1.01 0.57" stroke="#000000" stroke-width="1" fill="none"></path></g><g transform="translate(238.90997314453125 435.5) rotate(0 222.44648490177943 -47.33163036952544)"><path d="M418 -83.88 C430.26 -87.18, 441.38 -92.12, 445.77 -96.88 M417.47 -84.36 C423.17 -86.86, 428.36 -88.1, 445.88 -94.75" stroke="#000000" stroke-width="1" fill="none"></path></g><g transform="translate(238.90997314453125 435.5) rotate(0 222.44648490177943 -47.33163036952544)"><path d="M417.34 -104.39 C429.9 -99.59, 441.28 -96.43, 445.77 -96.88 M416.81 -104.87 C422.81 -103.14, 428.14 -100.16, 445.88 -94.75" stroke="#000000" stroke-width="1" fill="none"></path></g></g><mask></mask><g stroke-linecap="round" transform="translate(495.0419439596303 743.5115883708022) rotate(0 35.339290345615666 53.62540939705457)"><path d="M1.62 -0.67 L69.11 -1.58 L69.38 107.06 L-1.45 108.23" stroke="none" stroke-width="0" fill="#fff"></path><path d="M0.44 0.4 C19.86 2.03, 38.22 1.5, 70.05 -1.59 M0.56 -0.09 C18.64 1.06, 37.86 -0.11, 70.58 -0.66 M68.97 -0.3 C68.04 32.8, 70.3 64.24, 69.98 106.23 M71.09 -0.29 C70.81 39.14, 69.8 79.32, 70.04 106.78 M72.66 109.09 C48.83 107.02, 27.53 106.08, 0.51 107.86 M70.23 107.1 C55.76 107.53, 42.27 106.44, -0.17 108.12 M0.31 105.51 C-1.59 66.24, -0.62 22.57, -1.31 -0.52 M0.03 107.01 C1.13 75.25, 1.72 43.79, 0.8 0.51" stroke="#000000" stroke-width="2" fill="none"></path></g><g stroke-linecap="round" transform="translate(487.4945109239161 736.491499085088) rotate(0 35.339290345615666 53.625409397054625)"><path d="M-0.67 -1.57 L69.1 -1.3 L70.48 105.8 L0.98 105.94" stroke="none" stroke-width="0" fill="#fff"></path><path d="M0.4 -0.1 C22.38 -1.86, 42.62 -0.78, 69.08 -0.65 M-0.09 -0.27 C27.02 -0.37, 51.92 -0.5, 70.02 -0.05 M70.38 -1.6 C72.49 22.45, 72.25 42.9, 69.66 108.56 M70.39 0.52 C70.13 27.79, 71.1 55.94, 70.21 107.41 M72.52 107.72 C53.83 109.43, 36.01 108.46, 0.61 105.27 M70.53 106.53 C42.97 106.91, 13.96 106.77, 0.87 108.22 M-1.74 106.2 C2.53 69.63, 1.43 30.87, -0.52 -0.03 M-0.24 107.57 C0.87 84.07, 1.44 59.86, 0.51 0.81" stroke="#000000" stroke-width="2" fill="none"></path></g><g stroke-linecap="round" transform="translate(478.09942163820074 728.2375928350884) rotate(0 35.339290345615666 53.625409397054625)"><path d="M-1.57 -1.58 L69.38 -0.19 L69.22 108.23 L-1.31 107.41" stroke="none" stroke-width="0" fill="#fff"></path><path d="M-0.1 1.6 C15.16 0.92, 33.1 -1.74, 70.03 1.38 M-0.27 0.95 C20.16 -0.15, 40.15 -0.6, 70.63 -0.97 M69.08 1.13 C70.42 39.91, 69.07 77.02, 71.99 106.53 M71.2 -0.08 C70.62 28.39, 70.48 54.53, 70.84 106.64 M71.14 107.28 C53.46 106.98, 33.79 108.51, -1.98 109.15 M69.96 107.46 C48.78 106.26, 26.76 108.01, 0.97 107.75 M-1.05 108.81 C-0.25 85.17, -1.48 61.64, -0.03 -1.51 M0.32 107.28 C0.88 84.01, 0.77 60.08, 0.81 -0.33" stroke="#000000" stroke-width="2" fill="none"></path></g><g stroke-linecap="round"><g transform="translate(490.0858482251117 776.9848298824409) rotate(0 22.327942218728708 -1.4039591283035406)"><path d="M-0.06 0.96 C6.47 1.05, 31.69 1.63, 39.4 0.8 C47.11 -0.04, 45.07 -3.54, 46.2 -4.05 M-1.55 0.42 C5.32 0.14, 33.78 -0.38, 41.58 -0.99 C49.38 -1.6, 44.46 -2.67, 45.24 -3.23" stroke="#000000" stroke-width="1" fill="none"></path></g></g><mask></mask><g stroke-linecap="round"><g transform="translate(491.9411004631261 745.5195425836023) rotate(0 23.50357962669608 -1.0622527494990095)"><path d="M0.96 -1.02 C3.83 -1.54, 10.2 -3.23, 17.47 -3.18 C24.75 -3.13, 39.79 -1.16, 44.61 -0.72 M0 1.06 C2.75 0.71, 9.03 -1.73, 16.86 -1.84 C24.69 -1.95, 41.97 0.01, 47 0.4" stroke="#000000" stroke-width="1" fill="none"></path></g></g><mask></mask><g stroke-linecap="round"><g transform="translate(491.8645009467566 812.9139168539596) rotate(0 23.641388419905127 -0.1748218478707031)"><path d="M-1.02 0.64 C3.33 0.28, 19.66 -1.63, 26.04 -1.21 C32.41 -0.79, 33.55 3.15, 37.23 3.14 C40.92 3.13, 46.32 -0.38, 48.15 -1.29 M0.64 -0.07 C4.81 -0.4, 18.95 -0.39, 24.89 -0.18 C30.83 0.04, 32.36 1.78, 36.26 1.23 C40.16 0.68, 46.56 -2.94, 48.3 -3.49" stroke="#000000" stroke-width="1" fill="none"></path></g></g><mask></mask><g stroke-linecap="round"><g transform="translate(488.6804537652263 824.1570652622381) rotate(0 27.80702277591638 -1.0537895421045391)"><path d="M0.64 -0.38 C2.01 -0.47, 6.49 -1.45, 9.21 -1.56 C11.93 -1.66, 10.67 -1.37, 16.96 -1.03 C23.24 -0.68, 40.75 0.53, 46.94 0.51 C53.12 0.49, 52.83 -0.64, 54.08 -1.15 M-0.48 -1.62 C1.17 -1.45, 8.57 -0.52, 11.42 -0.22 C14.27 0.08, 10.6 -0.1, 16.62 0.2 C22.64 0.49, 40.96 2.23, 47.54 1.56 C54.12 0.89, 54.71 -2.94, 56.1 -3.82" stroke="#000000" stroke-width="1" fill="none"></path></g></g><mask></mask><g stroke-linecap="round"><g transform="translate(488.9652966607921 760.5801441368635) rotate(0 23.184155324815322 0.5505341745242731)"><path d="M-0.38 -0.96 C2.76 -1.02, 9.95 -0.35, 17.81 0.23 C25.66 0.82, 41.91 2.34, 46.75 2.56 M1.63 1.16 C4.66 0.7, 9.28 -1.36, 16.65 -1.45 C24.03 -1.55, 40.82 -0.09, 45.88 0.57" stroke="#000000" stroke-width="1" fill="none"></path></g></g><mask></mask><g stroke-linecap="round"><g transform="translate(489.07278485694246 795.0634731727032) rotate(0 22.861120203762823 0.6961717478973242)"><path d="M-0.96 -0.39 C0.42 -0.12, 5.62 1.3, 8.92 1.24 C12.22 1.19, 12.59 -0.99, 18.87 -0.69 C25.15 -0.4, 41.92 2.64, 46.6 3.03 M0.74 -1.64 C1.98 -1.15, 5.45 2.32, 8.41 2.69 C11.36 3.05, 12.08 0.84, 18.46 0.57 C24.84 0.3, 42.17 0.86, 46.68 1.08" stroke="#000000" stroke-width="1" fill="none"></path></g></g><mask></mask><g transform="translate(446.90997314453125 854.5) rotate(0 85.21993255615234 12.5)"><text x="0" y="0" font-family="Virgil, Segoe UI Emoji" font-size="20px" fill="#000000" text-anchor="start" style="white-space: pre;" direction="ltr" dominant-baseline="text-before-edge">Ratings Forecast</text></g><g stroke-linecap="round" transform="translate(360.0419439596303 542.1427919532584) rotate(0 35.339290345615666 53.625409397054625)"><path d="M-1.78 1.85 L71.87 1.5 L72.35 108.81 L-1.96 107.12" stroke="none" stroke-width="0" fill="#fff"></path><path d="M1.57 1.57 C20.05 -1.76, 45.27 0.44, 71.29 1.26 M0.11 -0.43 C19.75 -0.44, 40.61 0.62, 70.56 -0.06 M69.34 1.58 C70.03 23.73, 73.13 42.37, 71.75 106.83 M69.78 -0.97 C70.67 41.82, 69.48 83.26, 71.56 106.49 M70.75 106.35 C46.77 105.93, 24.87 105.86, 0.45 107.46 M70.76 106.84 C55.95 106.71, 40.74 107.43, -0.51 107.7 M-1.35 106.85 C-0.24 75.49, 1.11 45.29, 0.31 -1.71 M0.81 107.49 C1.13 73.81, -0.57 39.6, -0.81 0.7" stroke="#000000" stroke-width="2" fill="none"></path></g><g stroke-linecap="round" transform="translate(352.4945109239161 535.1227026675438) rotate(0 35.339290345615666 53.625409397054625)"><path d="M1.85 1.19 L72.18 1.67 L72.23 105.29 L-0.13 108.64" stroke="none" stroke-width="0" fill="#fff"></path><path d="M1.57 -1.73 C18.99 1.16, 41.56 0.06, 71.94 -0.14 M-0.43 -0.97 C14.63 -0.91, 30.86 -0.19, 70.62 -0.96 M72.26 -1.42 C71.8 41.61, 68.52 80.94, 70.26 109.01 M69.71 0.91 C70.86 22.7, 70.71 46.84, 69.92 107.62 M69.78 107.12 C48.73 109.03, 27.42 107.73, 0.21 105.62 M70.27 107.97 C43.88 108.25, 18.64 106.8, 0.45 107.1 M-0.4 106.06 C-1.82 84.8, -1.45 62.36, -1.71 0.32 M0.24 108.21 C0.54 76.09, 0.23 45.6, 0.7 -0.89" stroke="#000000" stroke-width="2" fill="none"></path></g><g stroke-linecap="round" transform="translate(343.09942163820074 526.8687964175442) rotate(0 35.339290345615666 53.625409397054625)"><path d="M1.19 1.5 L72.35 1.56 L68.72 107.12 L1.39 105.47" stroke="none" stroke-width="0" fill="#fff"></path><path d="M-1.73 -1.39 C26.63 0.25, 50.46 0.7, 70.54 -1.71 M-0.97 -0.54 C19.42 0.83, 40.4 0.24, 69.72 0.72 M69.26 1.81 C71.64 23.83, 71.03 50.18, 72.43 105.54 M71.59 0.23 C69.43 31.75, 70.59 62.55, 71.04 107.26 M70.55 106.53 C57.27 106.14, 40.8 107.14, -1.63 108.6 M71.39 106.42 C47.59 106.86, 22.12 107.41, -0.15 106.36 M-1.19 106.07 C0.87 67.88, 1.03 28.42, 0.32 -0.33 M0.96 107.71 C-1.62 76.01, -1.68 45.17, -0.89 0.93" stroke="#000000" stroke-width="2" fill="none"></path></g><g stroke-linecap="round"><g transform="translate(355.0858482251117 575.6160334648966) rotate(0 22.95814735593575 -1.4704508135685614)"><path d="M-1.04 -0.83 C5.71 -0.88, 33.45 0.89, 41.45 0.64 C49.45 0.39, 46.11 -1.54, 46.95 -2.34 M0.62 1.34 C7.22 0.85, 33.42 -0.29, 41.04 -1.23 C48.67 -2.16, 45.43 -3.9, 46.38 -4.28" stroke="#000000" stroke-width="1" fill="none"></path></g></g><mask></mask><g stroke-linecap="round"><g transform="translate(356.9411004631261 544.1507461660585) rotate(0 22.74429022629542 -1.6684432156586126)"><path d="M-0.83 1.03 C1.9 0.79, 9.46 -2.19, 17.32 -2.43 C25.18 -2.67, 41.78 -0.73, 46.32 -0.41 M0.93 0.52 C3.46 0, 9.12 -4.42, 16.62 -4.36 C24.13 -4.3, 41.35 0.05, 45.95 0.87" stroke="#000000" stroke-width="1" fill="none"></path></g></g><mask></mask><g stroke-linecap="round"><g transform="translate(356.8645009467566 611.5451204364153) rotate(0 24.22237472532916 0.11836942453129495)"><path d="M1.03 0.48 C5.66 0.71, 20.7 0.36, 26.78 0.5 C32.87 0.63, 33.97 1.68, 37.54 1.29 C41.1 0.9, 46.46 -1.1, 48.18 -1.84 M0.11 -0.31 C4.71 -0.35, 19.92 -1.62, 26.03 -1.23 C32.13 -0.83, 33.01 1.98, 36.73 2.07 C40.45 2.16, 46.17 0.24, 48.34 -0.66" stroke="#000000" stroke-width="1" fill="none"></path></g></g><mask></mask><g stroke-linecap="round"><g transform="translate(353.6804537652263 622.7882688446944) rotate(0 27.049772768748966 -0.9337772021326032)"><path d="M0.48 0.37 C2.44 -0.01, 8.48 -1.02, 10.92 -1.25 C13.36 -1.48, 9.19 -1.23, 15.11 -1 C21.02 -0.78, 40.03 0.42, 46.39 0.1 C52.75 -0.22, 52.07 -2.65, 53.24 -2.94 M-0.72 -0.48 C1.22 -0.14, 7.34 0.13, 10.37 0.25 C13.4 0.37, 11.41 0.12, 17.46 0.23 C23.52 0.35, 40.48 1.45, 46.7 0.93 C52.93 0.42, 53.56 -2.34, 54.82 -2.89" stroke="#000000" stroke-width="1" fill="none"></path></g></g><mask></mask><g stroke-linecap="round"><g transform="translate(353.9652966607921 559.2113477193193) rotate(0 22.936101155161424 0.8842451768134083)"><path d="M0.37 0.75 C3.22 0.4, 10.38 -1.83, 18.11 -1.62 C25.85 -1.41, 42.05 1.62, 46.77 2.01 M-0.9 0.1 C1.7 -0.17, 9.32 -1.17, 17.12 -0.62 C24.92 -0.07, 41.04 3.09, 45.92 3.4" stroke="#000000" stroke-width="1" fill="none"></path></g></g><mask></mask><g stroke-linecap="round"><g transform="translate(354.07278485694246 593.694676755159) rotate(0 22.72787170916007 0.7796166373216238)"><path d="M0.75 -0.08 C1.85 0.07, 4.14 1.44, 7.07 1.27 C10 1.1, 11.87 -1.1, 18.32 -1.1 C24.77 -1.11, 41.16 0.64, 45.76 1.24 M-0.31 -1.17 C1.11 -0.86, 6.25 2.53, 9.24 2.72 C12.23 2.91, 11.6 0.06, 17.62 -0.06 C23.65 -0.17, 40.41 1.46, 45.4 2.01" stroke="#000000" stroke-width="1" fill="none"></path></g></g><mask></mask><g transform="translate(298.90997314453125 653.1312035824558) rotate(0 92.72991943359375 25)"><text x="0" y="0" font-family="Virgil, Segoe UI Emoji" font-size="20px" fill="#000000" text-anchor="start" style="white-space: pre;" direction="ltr" dominant-baseline="text-before-edge">Operating Ratings</text><text x="0" y="25" font-family="Virgil, Segoe UI Emoji" font-size="20px" fill="#000000" text-anchor="start" style="white-space: pre;" direction="ltr" dominant-baseline="text-before-edge">Forecast Snapshot</text></g><g stroke-linecap="round" transform="translate(539.5419439596303 525.6427919532584) rotate(0 35.339290345615666 53.625409397054625)"><path d="M-1.71 1.88 L71.94 1.21 L71.22 106.22 L1.77 107.35" stroke="none" stroke-width="0" fill="#fff"></path><path d="M-0.31 0.07 C28.85 -0.91, 57.26 -1.83, 69.66 -1.53 M-0.76 -0.68 C22.5 -1.06, 43.41 0.01, 70.62 0.18 M69.32 1.77 C72.34 29.69, 71.41 60.34, 72.21 107.71 M69.78 -0.65 C69.48 36.4, 70.13 74.58, 70.52 107.92 M71.43 107.53 C51.12 108.19, 31.3 106.59, -1.52 105.92 M70.59 106.42 C44.55 108.58, 18.19 107.07, -0.03 106.93 M-1.88 107.98 C-0.05 72.29, 0.55 40.96, -1.15 0.95 M-0.48 107.15 C-2.01 76.33, -0.88 47, 0.68 -0.98" stroke="#000000" stroke-width="2" fill="none"></path></g><g stroke-linecap="round" transform="translate(531.9945109239161 518.6227026675438) rotate(0 35.339290345615666 53.625409397054625)"><path d="M1.88 1.26 L71.88 0.54 L69.65 109.02 L0.1 108.5" stroke="none" stroke-width="0" fill="#fff"></path><path d="M0.07 1.13 C13.97 1.94, 27.35 -0.91, 69.15 0.25 M-0.68 0.43 C13.77 -0.2, 29.49 0.48, 70.86 -0.12 M72.45 1.42 C68.7 35.08, 68.41 70.7, 71.14 108.21 M70.02 -0.22 C69.05 22.82, 69.94 44.62, 71.34 107.09 M70.96 107.78 C54.12 108.32, 35.72 106, -1.33 108.72 M69.85 107.52 C46.25 107.49, 19.48 107.15, -0.32 107.43 M0.73 107.88 C-1.36 69.53, 1.36 28.19, 0.95 -0.38 M-0.1 106.31 C-1.69 64.56, -0.9 22.18, -0.98 -0.86" stroke="#000000" stroke-width="2" fill="none"></path></g><g stroke-linecap="round" transform="translate(522.5994216382005 510.3687964175442) rotate(0 35.339290345615666 53.625409397054625)"><path d="M1.26 1.21 L71.22 -1.03 L72.45 107.35 L1.25 107.51" stroke="none" stroke-width="0" fill="#fff"></path><path d="M1.13 -0.33 C28.92 -1.27, 53.15 -1.55, 70.92 -1.86 M0.43 -0.87 C22.27 0.67, 45.97 0.66, 70.56 0.22 M72.1 -1.24 C70.44 23.2, 71.49 49.92, 71.63 105.43 M70.46 -0.9 C70.15 24.86, 69.56 50.39, 70.52 106.63 M71.21 107.49 C43.31 105.99, 12.81 106.02, 1.47 108.4 M70.95 108.09 C44.86 106, 18.41 106.35, 0.17 107.88 M0.63 106.33 C2.24 72.46, -0.14 35.02, -0.38 2 M-0.94 106.45 C0.7 66.19, 1.19 24.18, -0.86 0.94" stroke="#000000" stroke-width="2" fill="none"></path></g><g stroke-linecap="round"><g transform="translate(534.5858482251115 559.1160334648966) rotate(0 22.91718708364141 -1.7127684936530727)"><path d="M0.68 -0.2 C7.63 -0.3, 33.98 0.05, 41.53 -0.59 C49.07 -1.23, 45.1 -3.41, 45.97 -4.01 M-0.42 -1.34 C6.48 -1.31, 33.6 0.86, 41.16 0.55 C48.71 0.25, 43.9 -2.47, 44.88 -3.17" stroke="#000000" stroke-width="1" fill="none"></path></g></g><mask></mask><g stroke-linecap="round"><g transform="translate(536.4411004631261 527.6507461660585) rotate(0 22.6534304052758 -1.1045315377065776)"><path d="M-0.2 1.1 C2.48 0.42, 8.61 -3.2, 16.08 -3.41 C23.56 -3.63, 39.92 -0.75, 44.65 -0.18 M-1.76 0.63 C1.3 0.04, 10.27 -2.29, 18.4 -2.2 C26.54 -2.1, 42.78 0.64, 47.06 1.21" stroke="#000000" stroke-width="1" fill="none"></path></g></g><mask></mask><g stroke-linecap="round"><g transform="translate(536.3645009467564 595.0451204364153) rotate(0 24.63556835553277 -0.4509028267481199)"><path d="M1.1 -0.75 C5.29 -0.91, 19.69 -1.5, 25.8 -1.17 C31.91 -0.85, 33.96 1.49, 37.77 1.2 C41.57 0.92, 47.02 -2.43, 48.64 -2.87 M0.22 1.47 C4.75 1.45, 22.05 -0.19, 28.19 -0.12 C34.34 -0.04, 33.6 2.29, 37.08 1.94 C40.56 1.58, 47.02 -1.79, 49.05 -2.25" stroke="#000000" stroke-width="1" fill="none"></path></g></g><mask></mask><g stroke-linecap="round"><g transform="translate(533.180453765226 606.2882688446944) rotate(0 27.087313461687415 -0.8775505139659572)"><path d="M-0.75 -0.61 C0.83 -0.96, 6.62 -1.03, 9.25 -1.02 C11.88 -1.01, 9 -0.67, 15.02 -0.54 C21.03 -0.4, 38.7 0.27, 45.35 -0.2 C52 -0.67, 53.56 -3.04, 54.92 -3.35 M1.06 1.69 C3.02 2.06, 8.77 0.72, 11.48 0.6 C14.19 0.47, 11.72 0.96, 17.33 0.94 C22.93 0.92, 39.06 1.22, 45.12 0.48 C51.19 -0.26, 52.16 -2.93, 53.72 -3.51" stroke="#000000" stroke-width="1" fill="none"></path></g></g><mask></mask><g stroke-linecap="round"><g transform="translate(533.4652966607919 542.7113477193193) rotate(0 23.31296201121677 0.023989393401791403)"><path d="M-0.61 -0.92 C2.26 -1.08, 10.37 -2.02, 18.34 -1.7 C26.32 -1.39, 42.61 0.29, 47.24 0.98 M1.27 1.22 C3.9 1.23, 9.91 -0.85, 17.47 -0.75 C25.03 -0.65, 41.89 1.67, 46.63 1.82" stroke="#000000" stroke-width="1" fill="none"></path></g></g><mask></mask><g stroke-linecap="round"><g transform="translate(533.5727848569422 577.194676755159) rotate(0 23.522284339695773 0.17693599022260287)"><path d="M-0.92 0.15 C0.37 0.54, 3.95 1.99, 6.98 1.73 C10.01 1.48, 10.54 -1.25, 17.29 -1.4 C24.03 -1.55, 42.65 0.25, 47.44 0.83 M0.8 -0.82 C2.51 -0.76, 5.96 -0.28, 9.11 -0.23 C12.26 -0.18, 13.23 -0.78, 19.7 -0.51 C26.18 -0.24, 43.28 0.86, 47.96 1.39" stroke="#000000" stroke-width="1" fill="none"></path></g></g><mask></mask><g transform="translate(487.40997314453125 636.6312035824558) rotate(0 78.92992401123047 25)"><text x="0" y="0" font-family="Virgil, Segoe UI Emoji" font-size="20px" fill="#000000" text-anchor="start" style="white-space: pre;" direction="ltr" dominant-baseline="text-before-edge">Operating Limits</text><text x="0" y="25" font-family="Virgil, Segoe UI Emoji" font-size="20px" fill="#000000" text-anchor="start" style="white-space: pre;" direction="ltr" dominant-baseline="text-before-edge">    Snapshot</text></g><g stroke-linecap="round" transform="translate(228.25425173772396 116.60045329019829) rotate(0 27.81460987140801 25.60069298867583)"><path d="M15.3 3.57 C20.31 0.97, 28.33 0.33, 33.97 1.3 C39.61 2.27, 45.61 5.24, 49.13 9.38 C52.65 13.52, 55.31 20.63, 55.09 26.12 C54.87 31.61, 51.7 38.13, 47.83 42.32 C43.96 46.51, 37.81 50.54, 31.88 51.29 C25.96 52.03, 17.52 49.81, 12.3 46.77 C7.08 43.73, 2.25 38.11, 0.58 33.07 C-1.1 28.04, -0.84 21.79, 2.24 16.56 C5.31 11.34, 15.93 4.41, 19.03 1.74 C22.14 -0.93, 20.95 0.06, 20.85 0.54 M33.31 1.72 C39.15 2.78, 46.92 7.41, 50.76 11.54 C54.6 15.68, 56.81 21.2, 56.37 26.54 C55.93 31.88, 52.32 39.62, 48.12 43.61 C43.91 47.59, 37.39 49.96, 31.15 50.44 C24.9 50.91, 15.73 49.54, 10.63 46.45 C5.53 43.35, 1.94 37.07, 0.54 31.87 C-0.87 26.68, -0.11 19.94, 2.21 15.25 C4.53 10.56, 9.08 5.99, 14.45 3.72 C19.83 1.45, 31.3 2.11, 34.47 1.64 C37.64 1.16, 33.55 0.71, 33.49 0.88" stroke="#000000" stroke-width="2" fill="none"></path></g><g stroke-linecap="round"><g transform="translate(252.9041004342232 167.51806251856044) rotate(0 -1.8559499884013348 30.642252314348696)"><path d="M0.02 -1.13 C-0.53 9.34, -3.3 51.73, -3.73 62.42 M-1.43 0.89 C-1.57 11.02, -1.24 50.44, -1.54 60.48" stroke="#000000" stroke-width="2" fill="none"></path></g></g><mask></mask><g stroke-linecap="round"><g transform="translate(250.41794082021602 231.1808286596771) rotate(0 11.891678621655899 19.32273933213324)"><path d="M-1.13 -1 C3.09 5.33, 20.48 31.56, 24.92 38.02 M0.47 1.09 C4.61 7.64, 20.03 33.32, 24.15 39.64" stroke="#000000" stroke-width="2" fill="none"></path></g></g><mask></mask><g stroke-linecap="round"><g transform="translate(249.16253001169252 229.88633033989663) rotate(0 -11.642097955171806 17.204425597757023)"><path d="M-1 0.35 C-4.85 6.36, -19.38 29.19, -23.1 34.93 M0.68 -0.52 C-3.32 5.26, -19.82 27.73, -23.96 33.29" stroke="#000000" stroke-width="2" fill="none"></path></g></g><mask></mask><g stroke-linecap="round"><g transform="translate(218.969892681607 202.79056762170137) rotate(0 16.23566725928407 -10.363675653331654)"><path d="M0.35 0.17 C6.1 -3.15, 27.92 -17.22, 33.4 -20.89 M-0.93 -0.79 C4.84 -3.83, 27.3 -16.02, 32.94 -19.4" stroke="#000000" stroke-width="2" fill="none"></path></g></g><mask></mask><g stroke-linecap="round"><g transform="translate(253.2900054881718 182.58675136654563) rotate(0 9.672007358664047 13.511928210831144)"><path d="M0.17 0.92 C3.76 5.3, 17.31 22.67, 20.55 26.67 M-1.21 0.35 C2.31 4.37, 15.7 20.72, 19.56 24.96" stroke="#000000" stroke-width="2" fill="none"></path></g></g><mask></mask><g transform="translate(188.52003479003906 272.5) rotate(0 60.88993835449219 25)"><text x="60.88993835449219" y="0" font-family="Virgil, Segoe UI Emoji" font-size="20px" fill="#000000" text-anchor="middle" style="white-space: pre;" direction="ltr" dominant-baseline="text-before-edge">Transmission</text><text x="60.88993835449219" y="25" font-family="Virgil, Segoe UI Emoji" font-size="20px" fill="#000000" text-anchor="middle" style="white-space: pre;" direction="ltr" dominant-baseline="text-before-edge">Owner</text></g><g stroke-linecap="round" transform="translate(175.75425173772396 423.550226645099) rotate(0 27.81460987140801 25.60069298867586)"><path d="M20.69 1.47 C25.89 -0.06, 34 1.23, 39.57 3.55 C45.14 5.87, 51.49 10.38, 54.1 15.38 C56.72 20.38, 56.92 28.36, 55.27 33.55 C53.63 38.73, 49.41 43.64, 44.21 46.5 C39.02 49.37, 30.24 51.11, 24.1 50.73 C17.95 50.35, 11.49 48.05, 7.32 44.23 C3.16 40.41, -0.56 33.55, -0.9 27.8 C-1.23 22.06, 0.79 14.39, 5.33 9.77 C9.86 5.15, 21.66 1.54, 26.31 0.07 C30.95 -1.39, 32.96 0.7, 33.19 0.98 M36.73 2.73 C41.91 3.79, 47.05 7.04, 50.06 11.31 C53.08 15.58, 55.17 22.83, 54.82 28.36 C54.47 33.88, 52.43 40.86, 47.96 44.47 C43.48 48.08, 34.05 49.6, 27.97 50 C21.88 50.41, 16.14 49.97, 11.46 46.89 C6.78 43.81, 1.27 37.01, -0.12 31.54 C-1.51 26.06, 0.29 18.89, 3.11 14.05 C5.93 9.21, 11.41 4.59, 16.82 2.48 C22.23 0.38, 32.49 1.56, 35.57 1.42 C38.65 1.27, 35.55 0.99, 35.31 1.61" stroke="#000000" stroke-width="2" fill="none"></path></g><g stroke-linecap="round"><g transform="translate(200.4041004342232 474.46783587346124) rotate(0 -0.9998119555170035 31.169637549181402)"><path d="M0.28 -0.58 C-0.18 9.76, -1.23 52.34, -1.81 62.92 M-1.03 1.73 C-1.65 11.66, -1.74 51.36, -2.28 61.25" stroke="#000000" stroke-width="2" fill="none"></path></g></g><mask></mask><g stroke-linecap="round"><g transform="translate(197.91794082021602 538.130602014578) rotate(0 12.419063856488663 19.472021858111304)"><path d="M-0.58 0.92 C3.51 7.09, 21.09 31.27, 25.42 37.33 M1.31 0.35 C5.24 6.66, 20.95 32.27, 24.92 38.59" stroke="#000000" stroke-width="2" fill="none"></path></g></g><mask></mask><g stroke-linecap="round"><g transform="translate(196.66253001169252 536.8361036947977) rotate(0 -12.048459120577064 17.559877161353768)"><path d="M0.92 0.85 C-3.1 6.76, -19.66 29.15, -23.79 34.87 M-0.06 0.25 C-4.3 5.88, -20.87 27.68, -25.01 33.2" stroke="#000000" stroke-width="2" fill="none"></path></g></g><mask></mask><g stroke-linecap="round"><g transform="translate(166.469892681607 509.74034097660194) rotate(0 16.591118822880816 -9.780728947909324)"><path d="M0.85 -0.52 C6.5 -4.24, 27.88 -18.17, 33.35 -21.38 M-0.16 1.82 C5.46 -1.83, 27.25 -16.24, 32.85 -20.14" stroke="#000000" stroke-width="2" fill="none"></path></g></g><mask></mask><g stroke-linecap="round"><g transform="translate(200.7900054881718 489.5365247214462) rotate(0 9.771520127885395 13.645598196363892)"><path d="M-0.52 0.86 C2.67 5.22, 16.37 22.82, 20.07 27.03 M1.4 0.26 C4.31 4.25, 15.48 20.96, 18.82 25.5" stroke="#000000" stroke-width="2" fill="none"></path></g></g><mask></mask><g transform="translate(157.58001708984375 579.449773354901) rotate(0 39.3299560546875 25)"><text x="39.3299560546875" y="0" font-family="Virgil, Segoe UI Emoji" font-size="20px" fill="#000000" text-anchor="middle" style="white-space: pre;" direction="ltr" dominant-baseline="text-before-edge">Ratings</text><text x="39.3299560546875" y="25" font-family="Virgil, Segoe UI Emoji" font-size="20px" fill="#000000" text-anchor="middle" style="white-space: pre;" direction="ltr" dominant-baseline="text-before-edge">Provider</text></g><g transform="translate(720.6499938964844 266.5) rotate(0 40.259979248046875 12.5)"><text x="40.259979248046875" y="0" font-family="Virgil, Segoe UI Emoji" font-size="20px" fill="#000000" text-anchor="middle" style="white-space: pre;" direction="ltr" dominant-baseline="text-before-edge">TROLIE</text></g><g stroke-linecap="round" transform="translate(668.8855587906326 75.39913207598397) rotate(0 48.02441435389869 47.100867924016)"><path d="M-1.24 -0.98 L97.17 0.26 L96.18 93.36 L1.73 92.54" stroke="none" stroke-width="0" fill="#eeeeee"></path><path d="M1.95 -1.61 C27.45 -2.13, 56.49 0.69, 94.59 -0.95 M-0.2 0.43 C22.17 -0.76, 46.35 0.02, 95.64 -0.52 M96.23 -1.46 C93.92 25.28, 95.52 52.48, 94.94 95.15 M95.8 -0.22 C96.81 24.01, 96.87 47.9, 96.91 93.73 M94.47 95.95 C73.83 93.38, 47.18 96.21, 0.28 92.36 M95.53 94.07 C61.1 93.63, 25.92 93.89, -0.37 93.32 M0.75 95.33 C1.06 71.31, -1.41 51.54, 0.26 0.69 M-0.09 94.27 C0.92 63.7, 0.74 35.4, 0.16 0.08" stroke="#000000" stroke-width="1" fill="none"></path></g><g transform="translate(686.8354187011721 102.41626713392884) rotate(0 30.074554443359375 19)"><text x="30.074554443359375" y="0" font-family="Virgil, Segoe UI Emoji" font-size="14.876839160052583px" fill="#000000" text-anchor="middle" style="white-space: pre;" direction="ltr" dominant-baseline="text-before-edge">Model</text><text x="30.074554443359375" y="19" font-family="Virgil, Segoe UI Emoji" font-size="14.876839160052583px" fill="#000000" text-anchor="middle" style="white-space: pre;" direction="ltr" dominant-baseline="text-before-edge">Manager</text></g><g stroke-linecap="round" transform="translate(783.9099731445312 615.5) rotate(0 79 52)"><path d="M26 0 M26 0 C46.61 -1.95, 68.76 1.06, 132 0 M132 0 C148.17 1.2, 158.17 8.38, 158 26 M158 26 C159.69 39.43, 159.05 50.83, 158 78 M158 78 C159.07 96.67, 149.37 105.2, 132 104 M132 104 C101.34 104.2, 66.3 105.66, 26 104 M26 104 C6.94 104.95, 0.56 94.26, 0 78 M0 78 C-0.83 66.79, 1.33 51.92, 0 26 M0 26 C-1.03 7.01, 9.07 -1.12, 26 0" stroke="#000000" stroke-width="1.5" fill="none" stroke-dasharray="1.5 7"></path></g><g transform="translate(815.0900115966797 642.5) rotate(0 43.81996154785156 25)"><text x="43.81996154785156" y="0" font-family="Virgil, Segoe UI Emoji" font-size="20px" fill="#000000" text-anchor="middle" style="white-space: pre;" direction="ltr" dominant-baseline="text-before-edge">Forecast</text><text x="43.81996154785156" y="25" font-family="Virgil, Segoe UI Emoji" font-size="20px" fill="#000000" text-anchor="middle" style="white-space: pre;" direction="ltr" dominant-baseline="text-before-edge">Window</text></g><g stroke-linecap="round" transform="translate(684.9099731445312 253.5) rotate(0 195 277.5)"><path d="M32 0 M32 0 C131.34 1.58, 230.56 2.39, 358 0 M32 0 C112.23 -1.06, 192.32 -1.04, 358 0 M358 0 C381.04 -1.82, 388.75 8.84, 390 32 M358 0 C379.05 1.03, 390.43 8.72, 390 32 M390 32 C388.82 184.58, 388.82 336.27, 390 523 M390 32 C391.19 206.38, 391.26 380.49, 390 523 M390 523 C388.8 546.03, 378.68 556.21, 358 555 M390 523 C388.14 543.16, 379.95 555.96, 358 555 M358 555 C283.17 553.33, 205.57 553.82, 32 555 M358 555 C254.8 553.24, 150.88 552.27, 32 555 M32 555 C9.75 556.74, -1.36 546.13, 0 523 M32 555 C10.5 553.38, -1.02 545.59, 0 523 M0 523 C1.24 345.15, 0.92 167.07, 0 32 M0 523 C1.81 345.98, 1.51 169.14, 0 32 M0 32 C-0.73 9.27, 10.55 1.55, 32 0 M0 32 C0.29 11.14, 9.79 0.65, 32 0" stroke="#000000" stroke-width="1" fill="none"></path></g><g stroke-opacity="0.5" fill-opacity="0.5" transform="translate(908.6900787353516 10) rotate(0 105.21989440917969 12.5)"><text x="105.21989440917969" y="0" font-family="Virgil, Segoe UI Emoji" font-size="20px" fill="#000000" text-anchor="middle" style="white-space: pre;" direction="ltr" dominant-baseline="text-before-edge">Transmission Provider</text></g><g stroke-linecap="round" transform="translate(789.9099731445312 402.5) rotate(0 79 52)"><path d="M26 0 M26 0 C62.42 1.6, 100.88 1.96, 132 0 M132 0 C149.27 0.77, 156.68 10.4, 158 26 M158 26 C159.13 43.98, 158.89 62.55, 158 78 M158 78 C156.19 93.45, 148.2 102.63, 132 104 M132 104 C95.33 106.56, 59.88 106.42, 26 104 M26 104 C10.3 105.75, 0.89 96.84, 0 78 M0 78 C1.07 61.44, 0.62 49.22, 0 26 M0 26 C0.88 9.76, 6.98 1.47, 26 0" stroke="#000000" stroke-width="1.5" fill="none" stroke-dasharray="1.5 7"></path></g><g transform="translate(823.4900207519531 432.5) rotate(0 47.419952392578125 25)"><text x="47.419952392578125" y="0" font-family="Virgil, Segoe UI Emoji" font-size="20px" fill="#000000" text-anchor="middle" style="white-space: pre;" direction="ltr" dominant-baseline="text-before-edge">Monitoring</text><text x="47.419952392578125" y="25" font-family="Virgil, Segoe UI Emoji" font-size="20px" fill="#000000" text-anchor="middle" style="white-space: pre;" direction="ltr" dominant-baseline="text-before-edge">Set</text></g><g mask="url(#mask-DUMvvqiEDFuLzsVhKHqxa)" stroke-linecap="round"><g transform="translate(291.47441617582984 153.75137253480068) rotate(0 184.06657893974304 -11.274679482609628)"><path d="M0 0.79 C61.46 -2.92, 308.09 -17.93, 369.6 -21.58 M-1.46 0.15 C59.79 -3.95, 307.14 -19.5, 368.73 -23.34" stroke="#000000" stroke-width="1" fill="none"></path></g><g transform="translate(291.47441617582984 153.75137253480068) rotate(0 184.06657893974304 -11.274679482609628)"><path d="M342.55 -11.06 C352.42 -16.38, 363.25 -20.77, 369.99 -24.78 M341.1 -11.76 C347.15 -13.06, 352.45 -15.82, 369.17 -22.36" stroke="#000000" stroke-width="1" fill="none"></path></g><g transform="translate(291.47441617582984 153.75137253480068) rotate(0 184.06657893974304 -11.274679482609628)"><path d="M341.27 -31.54 C351.72 -29.35, 363.02 -26.22, 369.99 -24.78 M339.81 -32.24 C345.98 -29.28, 351.55 -27.77, 369.17 -22.36" stroke="#000000" stroke-width="1" fill="none"></path></g></g><mask id="mask-DUMvvqiEDFuLzsVhKHqxa"><rect x="0" y="0" fill="#fff" width="760.9099731445312" height="276.0320311814134"></rect><rect x="382.50228377150876" y="115.61104321149435" fill="#000" width="187.37982177734375" height="54" opacity="1"></rect></mask><g transform="translate(382.5022837715087 115.61104321149435) rotate(0 93.03871134406418 26.865649840696705)"><text x="93.68991088867188" y="0" font-family="Virgil, Segoe UI Emoji" font-size="20px" fill="#000000" text-anchor="middle" style="white-space: pre;" direction="ltr" dominant-baseline="text-before-edge">designates</text><text x="93.68991088867188" y="27" font-family="Virgil, Segoe UI Emoji" font-size="20px" fill="#000000" text-anchor="middle" style="white-space: pre;" direction="ltr" dominant-baseline="text-before-edge">Ratings Provider(s)</text></g><g stroke-linecap="round" transform="translate(402.0419439596303 308.14279195325844) rotate(0 35.339290345615666 53.625409397054625)"><path d="M-0.1 0.65 L68.79 -1.46 L69.51 105.33 L-0.71 106.01" stroke="none" stroke-width="0" fill="#fff"></path><path d="M-1.16 -0.36 C27.1 0.27, 52.47 0.98, 72.61 1.03 M-0.86 0.2 C27.25 0.75, 55.19 -0.6, 71.32 -0.53 M71.45 1.07 C70.32 22.86, 71.35 46.91, 70.77 107.12 M71.57 -0.69 C70.75 22.55, 70.12 46.19, 71.47 106.65 M71.68 108.01 C56.88 105.73, 39.88 108.11, -0.85 106.89 M69.76 107.52 C53.91 106.99, 37.06 108.37, 0.42 107.08 M-1.08 105.43 C0.37 78.14, -1.7 48.05, -0.34 -1.7 M-0.12 107.33 C1.88 80.89, 1.26 53.7, 0.07 0.58" stroke="#000000" stroke-width="2" fill="none"></path></g><g stroke-linecap="round" transform="translate(394.4945109239161 301.12270266754376) rotate(0 35.339290345615666 53.625409397054625)"><path d="M0.65 -1.89 L69.21 -1.17 L68.75 106.54 L-1.24 108.37" stroke="none" stroke-width="0" fill="#fff"></path><path d="M-0.36 1.75 C14.67 2.19, 29.69 2.34, 71.71 1.92 M0.2 -0.73 C19.22 -0.15, 36.72 1.25, 70.15 -0.82 M71.75 0.04 C70.39 29.22, 71.03 56.39, 70.54 105.57 M69.99 0.46 C69.35 28.19, 69.82 57.53, 70.08 106.37 M71.44 108.42 C51.82 106.75, 36.95 106.76, -0.36 105.9 M70.95 106.91 C55.29 105.83, 41.91 107.03, -0.17 106.94 M-1.82 108.58 C-1.26 64.77, -2.52 23.44, -1.7 -0.99 M0.08 108.2 C0.52 84.77, 0.17 61.71, 0.58 -0.05" stroke="#000000" stroke-width="2" fill="none"></path></g><g stroke-linecap="round" transform="translate(385.09942163820074 292.8687964175442) rotate(0 35.339290345615666 53.625409397054625)"><path d="M-1.89 -1.46 L69.51 -1.92 L69.97 106.01 L1.11 108.29" stroke="none" stroke-width="0" fill="#fff"></path><path d="M1.75 0.37 C24.06 1.22, 46.48 1.16, 72.59 -0.67 M-0.73 0.37 C16.68 -1.12, 35.52 -0.67, 69.86 -0.38 M70.72 -0.55 C72.16 34.87, 71.19 69.43, 69 106.54 M71.13 -0.63 C71.45 25, 72.42 49.71, 69.8 106.69 M71.85 105.63 C47.64 108.28, 25.46 107.16, -1.35 105.43 M70.33 106.62 C44.97 108.19, 21.22 107.27, -0.31 108.14 M1.33 106.97 C-0.17 63.68, 0.24 21.47, -0.99 -1.75 M0.95 107.74 C0.45 75.47, 0.2 43.98, -0.05 0.33" stroke="#000000" stroke-width="2" fill="none"></path></g><g stroke-linecap="round"><g transform="translate(397.0858482251117 341.61603346489665) rotate(0 23.940283326454846 -1.77460308617421)"><path d="M1.05 0.22 C8.08 0.4, 33.71 1.26, 41.49 0.81 C49.27 0.36, 46.7 -1.76, 47.74 -2.47 M0.14 -0.7 C7.17 -0.86, 33.2 -0.33, 41.11 -0.97 C49.01 -1.6, 46.94 -4.22, 47.58 -4.49" stroke="#000000" stroke-width="1" fill="none"></path></g></g><mask></mask><g stroke-linecap="round"><g transform="translate(398.9411004631261 310.1507461660585) rotate(0 22.535057865337308 -1.0561880001506552)"><path d="M0.22 1.07 C3.17 0.62, 9.83 -1.6, 17.49 -1.65 C25.15 -1.69, 41.57 0.71, 46.19 0.82 M-1.12 0.58 C1.75 0.35, 9.07 -2.91, 16.88 -3.16 C24.69 -3.41, 41.03 -1.41, 45.75 -0.92" stroke="#000000" stroke-width="1" fill="none"></path></g></g><mask></mask><g stroke-linecap="round"><g transform="translate(398.8645009467566 377.54512043641535) rotate(0 23.934323163518172 0.01409835078334254)"><path d="M1.07 0.66 C5.49 0.68, 21.29 0.15, 27.57 0.36 C33.85 0.57, 35.42 2.48, 38.77 1.92 C42.12 1.35, 46.06 -2.21, 47.7 -3 M0.17 -0.05 C4.44 -0.39, 20.82 -1.94, 27.23 -1.43 C33.64 -0.92, 35.21 3.19, 38.61 3.02 C42 2.86, 46.17 -1.45, 47.61 -2.44" stroke="#000000" stroke-width="1" fill="none"></path></g></g><mask></mask><g stroke-linecap="round"><g transform="translate(395.6804537652263 388.78826884469436) rotate(0 27.40260180046971 0.12149115490910845)"><path d="M0.66 1.16 C2.42 0.98, 8.27 0.42, 10.79 -0.02 C13.3 -0.46, 9.99 -1.63, 15.73 -1.48 C21.47 -1.34, 38.93 0.92, 45.23 0.86 C51.53 0.8, 52.16 -1.13, 53.53 -1.85 M-0.46 0.72 C1.18 0.75, 7.63 -1.33, 10.16 -1.54 C12.7 -1.74, 8.96 -1.1, 14.75 -0.5 C20.55 0.11, 38.18 2.21, 44.93 2.09 C51.68 1.97, 53.68 -0.64, 55.27 -1.23" stroke="#000000" stroke-width="1" fill="none"></path></g></g><mask></mask><g stroke-linecap="round"><g transform="translate(395.9652966607921 325.2113477193193) rotate(0 23.298319999269722 0.3163027468000621)"><path d="M1.16 0.62 C4.2 0.35, 11.82 -1.03, 19.34 -0.99 C26.87 -0.95, 41.65 0.52, 46.29 0.85 M0.31 -0.1 C3.2 -0.26, 11.52 0.05, 19 0.34 C26.48 0.62, 40.43 1.4, 45.19 1.62" stroke="#000000" stroke-width="1" fill="none"></path></g></g><mask></mask><g stroke-linecap="round"><g transform="translate(396.07278485694246 359.694676755159) rotate(0 22.771117182254386 1.6426716244637305)"><path d="M0.62 1.15 C1.79 1.09, 4.94 1.04, 7.69 0.79 C10.45 0.54, 10.77 -0.6, 17.16 -0.35 C23.55 -0.09, 41.25 2.15, 46.06 2.33 M-0.51 0.71 C0.41 1.3, 3.2 1.93, 6.54 1.99 C9.87 2.06, 12.96 0.82, 19.51 1.1 C26.06 1.38, 41.14 3.77, 45.84 3.66" stroke="#000000" stroke-width="1" fill="none"></path></g></g><mask></mask><g transform="translate(353.90997314453125 419.1312035824558) rotate(0 103.1799087524414 25)"><text x="0" y="0" font-family="Virgil, Segoe UI Emoji" font-size="20px" fill="#000000" text-anchor="start" style="white-space: pre;" direction="ltr" dominant-baseline="text-before-edge">Alternative Recourse</text><text x="0" y="25" font-family="Virgil, Segoe UI Emoji" font-size="20px" fill="#000000" text-anchor="start" style="white-space: pre;" direction="ltr" dominant-baseline="text-before-edge">Ratings</text></g><g mask="url(#mask-cpWZvPQEShQy941REEnsh)" stroke-linecap="round"><g transform="translate(824.5928944293023 934.8779138052867) rotate(0 -48.06637721941064 -60.4367498991092)"><path d="M-0.24 0.64 C-16.06 -19.6, -79.89 -101.33, -95.89 -121.52 M-1.82 -0.06 C-17.16 -20.21, -78.18 -100.72, -93.52 -120.58" stroke="#000000" stroke-width="1" fill="none"></path></g><g transform="translate(824.5928944293023 934.8779138052867) rotate(0 -48.06637721941064 -60.4367498991092)"><path d="M-67.18 -105.48 C-75.64 -109.62, -79.41 -113.4, -95.24 -120.86 M-67.5 -105.28 C-77.24 -111.41, -87.25 -117.57, -93.9 -120.31" stroke="#000000" stroke-width="1" fill="none"></path></g><g transform="translate(824.5928944293023 934.8779138052867) rotate(0 -48.06637721941064 -60.4367498991092)"><path d="M-83.49 -93.02 C-88.4 -99.83, -88.62 -106.32, -95.24 -120.86 M-83.81 -92.82 C-87.57 -103.43, -91.51 -114.23, -93.9 -120.31" stroke="#000000" stroke-width="1" fill="none"></path></g></g><mask id="mask-cpWZvPQEShQy941REEnsh"><rect x="0" y="0" fill="#fff" width="1019.840834060351" height="1155.2558276105729"></rect><rect x="727.1589499433678" y="861.1889569026434" fill="#000" width="99.61994934082031" height="27" opacity="1"></rect></mask><g transform="translate(727.1589499433678 861.1889569026434) rotate(0 49.36756726652385 13.25220700353401)"><text x="49.809974670410156" y="0" font-family="Virgil, Segoe UI Emoji" font-size="20px" fill="#000000" text-anchor="middle" style="white-space: pre;" direction="ltr" dominant-baseline="text-before-edge">SOL/IROL</text></g><g mask="url(#mask-ZGbB0xdMOazF-jWjVhaKr)" stroke-linecap="round"><g transform="translate(775.9099731445312 123.5) rotate(0 100.23176719808015 55.10750295625482)"><path d="M-0.11 0.78 C27.34 -0.25, 132.11 -25.61, 165.81 -4.98 C199.51 15.64, 195.87 103.15, 202.09 124.52 M-1.63 0.14 C26.07 -0.7, 134.12 -26.95, 167.9 -6.57 C201.68 13.82, 195.09 100.7, 201.04 122.45" stroke="#000000" stroke-width="1" fill="none"></path></g><g transform="translate(775.9099731445312 123.5) rotate(0 100.23176719808015 55.10750295625482)"><path d="M189.29 93.45 C195.08 105.14, 199.36 117.48, 199.77 121.87 M187.66 95.84 C189.94 100.67, 193.41 106.59, 201.42 122.24" stroke="#000000" stroke-width="1" fill="none"></path></g><g transform="translate(775.9099731445312 123.5) rotate(0 100.23176719808015 55.10750295625482)"><path d="M209.71 91.39 C207.51 103.87, 203.78 117.02, 199.77 121.87 M208.08 93.77 C206.11 99.22, 205.32 105.57, 201.42 122.24" stroke="#000000" stroke-width="1" fill="none"></path></g></g><mask id="mask-ZGbB0xdMOazF-jWjVhaKr"><rect x="0" y="0" fill="#fff" width="1078.5433656231035" height="353.5"></rect><rect x="836.0400619506836" y="63.5" fill="#000" width="213.7398223876953" height="108" opacity="1"></rect></mask><g transform="translate(836.0400619506836 63.5) rotate(0 40.101678391927805 115.10750295625482)"><text x="106.86991119384766" y="0" font-family="Virgil, Segoe UI Emoji" font-size="20px" fill="#000000" text-anchor="middle" style="white-space: pre;" direction="ltr" dominant-baseline="text-before-edge">Ratings Requirements,</text><text x="106.86991119384766" y="27" font-family="Virgil, Segoe UI Emoji" font-size="20px" fill="#000000" text-anchor="middle" style="white-space: pre;" direction="ltr" dominant-baseline="text-before-edge">Permissions, </text><text x="106.86991119384766" y="54" font-family="Virgil, Segoe UI Emoji" font-size="20px" fill="#000000" text-anchor="middle" style="white-space: pre;" direction="ltr" dominant-baseline="text-before-edge">Precoordinated</text><text x="106.86991119384766" y="81" font-family="Virgil, Segoe UI Emoji" font-size="20px" fill="#000000" text-anchor="middle" style="white-space: pre;" direction="ltr" dominant-baseline="text-before-edge">Seasonal Ratings</text></g><g mask="url(#mask-tBNjRAXS_rJt-IT4LszQD)" stroke-linecap="round"><g transform="translate(179.52003479003906 300.5307792129553) rotate(0 -62.775446873304986 136.52117929427567)"><path d="M-0.75 -1.16 C-21.47 20.16, -120.24 81.13, -124.64 127.02 C-129.04 172.91, -43.17 249.72, -27.13 274.2" stroke="#000000" stroke-width="1.5" fill="none" stroke-dasharray="8 9"></path></g><g transform="translate(179.52003479003906 300.5307792129553) rotate(0 -62.775446873304986 136.52117929427567)"><path d="M-55.17 259.38 C-46.09 264.08, -39.54 266.01, -28.17 275.33" stroke="#000000" stroke-width="1.5" fill="none"></path></g><g transform="translate(179.52003479003906 300.5307792129553) rotate(0 -62.775446873304986 136.52117929427567)"><path d="M-39.57 246.05 C-34.87 254.31, -32.6 259.9, -28.17 275.33" stroke="#000000" stroke-width="1.5" fill="none"></path></g></g><mask id="mask-tBNjRAXS_rJt-IT4LszQD"><rect x="0" y="0" fill="#fff" width="404.1300964355469" height="675.0537007000232"></rect><rect x="10" y="414" fill="#000" width="89.8199462890625" height="27" opacity="1"></rect></mask><g transform="translate(10 414) rotate(0 106.74458791673408 23.05195850723095)"><text x="44.90997314453125" y="0" font-family="Virgil, Segoe UI Emoji" font-size="20px" fill="#000000" text-anchor="middle" style="white-space: pre;" direction="ltr" dominant-baseline="text-before-edge">may be a</text></g><g stroke-linecap="round" transform="translate(797.3977659675818 940.0986981139758) rotate(0 48.02441435389869 47.10086792401603)"><path d="M-0.24 1.26 L95.31 0.66 L95.67 94.86 L0.56 95.32" stroke="none" stroke-width="0" fill="#eeeeee"></path><path d="M0.29 -0.11 C30.54 -2.01, 59.9 0.42, 94.56 -1.57 M0.7 -0.71 C20.24 -0.08, 40.55 -1.63, 96.43 0.75 M97.14 -0.01 C97.98 33.52, 95.22 70.4, 97.48 93.25 M96.06 0.17 C95.19 19.02, 95.26 38.89, 96.06 93.38 M94.79 92.91 C64.69 95.89, 29.54 96.04, -1.22 94.61 M95.13 93.23 C60.22 95.02, 25.78 94.66, -0.96 93.65 M-0.82 94.58 C1.69 61.5, 1.14 24.79, -0.63 -0.46 M0.39 94.06 C-1.12 68.53, -0.39 43.71, -0.6 -0.72" stroke="#000000" stroke-width="1" fill="none"></path></g><g transform="translate(830.1953126456992 967.1158331719207) rotate(0 15.22686767578125 9.5)"><text x="15.22686767578125" y="0" font-family="Virgil, Segoe UI Emoji" font-size="14.876839160052583px" fill="#000000" text-anchor="middle" style="white-space: pre;" direction="ltr" dominant-baseline="text-before-edge">EMS</text></g><g mask="url(#mask-jzMpxeDSVzWXP6hfF-q7v)" stroke-linecap="round"><g transform="translate(1009.8675859118921 815.5000000000002) rotate(0 -74.49859373703492 61.04137510602811)"><path d="M0.76 -0.79 C-24.38 19.38, -124.95 101.38, -149.76 121.91 M-0.3 1.41 C-25.17 21.61, -122.84 102.54, -147.54 122.87" stroke="#000000" stroke-width="1" fill="none"></path></g><g transform="translate(1009.8675859118921 815.5000000000002) rotate(0 -74.49859373703492 61.04137510602811)"><path d="M-133.66 95.43 C-139.91 108.37, -145 117.97, -145.88 122.91 M-132.74 96.15 C-136.49 103.06, -140.56 111.34, -147.15 123.15" stroke="#000000" stroke-width="1" fill="none"></path></g><g transform="translate(1009.8675859118921 815.5000000000002) rotate(0 -74.49859373703492 61.04137510602811)"><path d="M-120.59 111.25 C-132.05 118.1, -142.25 121.52, -145.88 122.91 M-119.67 111.97 C-126.76 114.79, -134.25 118.94, -147.15 123.15" stroke="#000000" stroke-width="1" fill="none"></path></g></g><mask id="mask-jzMpxeDSVzWXP6hfF-q7v"><rect x="0" y="0" fill="#fff" width="1258.6750055692992" height="1038.5"></rect><rect x="850.3739484098487" y="850" fill="#000" width="170.1798553466797" height="54" opacity="1"></rect></mask><g transform="translate(850.3739484098487 850) rotate(0 84.99504376500846 26.54137510602834)"><text x="85.08992767333984" y="0" font-family="Virgil, Segoe UI Emoji" font-size="20px" fill="#000000" text-anchor="middle" style="white-space: pre;" direction="ltr" dominant-baseline="text-before-edge">Alternative</text><text x="85.08992767333984" y="27" font-family="Virgil, Segoe UI Emoji" font-size="20px" fill="#000000" text-anchor="middle" style="white-space: pre;" direction="ltr" dominant-baseline="text-before-edge">Recourse Ratings</text></g></svg>