<svg version="1.1" xmlns="http://www.w3.org/2000/svg" viewBox="0 0 1071.6717636118365 425.5" width="1071.6717636118365" height="425.5">
  <!-- svg-source:excalidraw -->
  
  <defs>
    <style class="style-fonts">
      @font-face {
        font-family: "Virgil";
        src: url("https://excalidraw.com/Virgil.woff2");
      }
      @font-face {
        font-family: "Cascadia";
        src: url("https://excalidraw.com/Cascadia.woff2");
      }
      @font-face {
        font-family: "Assistant";
        src: url("https://excalidraw.com/Assistant-Regular.woff2");
      }
    </style>
    
  </defs>
  <rect x="0" y="0" width="1071.6717636118365" height="425.5" fill="#ffffff"></rect><g stroke-linecap="round"><g transform="translate(10.874888611836354 212) rotate(0 517 1.5)"><path d="M0.38 -1.06 C172.78 -0.41, 862.23 3.24, 1034.35 3.86 M-0.87 0.99 C171.4 1.32, 860.85 1.71, 1033.59 2.19" stroke="#1e1e1e" stroke-width="2" fill="none"></path></g><g transform="translate(10.874888611836354 212) rotate(0 517 1.5)"><path d="M1010.08 10.7 C1015.26 8.7, 1025.41 4.12, 1033.59 2.19 M1010.08 10.7 C1015.98 8.84, 1022.74 6.22, 1033.59 2.19" stroke="#1e1e1e" stroke-width="2" fill="none"></path></g><g transform="translate(10.874888611836354 212) rotate(0 517 1.5)"><path d="M1010.11 -6.4 C1015.27 -3.35, 1025.41 -2.88, 1033.59 2.19 M1010.11 -6.4 C1015.93 -3.6, 1022.68 -1.55, 1033.59 2.19" stroke="#1e1e1e" stroke-width="2" fill="none"></path></g></g><mask></mask><g stroke-linecap="round"><g transform="translate(99.87488861183635 184) rotate(0 0.5 33)"><path d="M-0.52 0.13 C-0.17 11.09, 0.68 54.32, 1.04 65.13 M1.41 -0.85 C1.69 10.29, 0.14 55.11, 0.11 66.21" stroke="#1e1e1e" stroke-width="2" fill="none"></path></g></g><mask></mask><g stroke-linecap="round"><g transform="translate(319.87488861183635 181) rotate(0 0.5 35)"><path d="M0.64 0.78 C0.71 12.33, 1.07 58.08, 1.04 69.5 M-0.48 0.15 C-0.63 11.83, 0.13 59.09, 0.12 70.78" stroke="#1e1e1e" stroke-width="2" fill="none"></path></g></g><mask></mask><g stroke-linecap="round"><g transform="translate(551.8748886118364 182) rotate(0 0 34.5)"><path d="M0.96 0.59 C1.08 12.1, 0.26 56.65, 0.06 67.88 M0 -0.14 C0.03 11.58, -0.67 57.35, -0.85 68.84" stroke="#1e1e1e" stroke-width="2" fill="none"></path></g></g><mask></mask><g transform="translate(65.87488861183635 143) rotate(0 28.2470703125 12.5)"><text x="0" y="0" font-family="Virgil, Segoe UI Emoji" font-size="20px" fill="#1e1e1e" text-anchor="start" style="white-space: pre;" direction="ltr" dominant-baseline="text-before-edge">June 1</text></g><g transform="translate(293.62781829933635 138.5) rotate(0 24.619140625 12.5)"><text x="0" y="0" font-family="Virgil, Segoe UI Emoji" font-size="20px" fill="#1e1e1e" text-anchor="start" style="white-space: pre;" direction="ltr" dominant-baseline="text-before-edge">July 1</text></g><g transform="translate(514.6278182993364 139.5) rotate(0 39.4189453125 12.5)"><text x="0" y="0" font-family="Virgil, Segoe UI Emoji" font-size="20px" fill="#1e1e1e" text-anchor="start" style="white-space: pre;" direction="ltr" dominant-baseline="text-before-edge">August 1</text></g><g stroke-linecap="round"><g transform="translate(800.6016581615253 176.53804211673327) rotate(0 0.5 35.00000000000003)"><path d="M-0.79 1.13 C-0.73 13.03, 0.29 59.2, 0.76 70.63 M0.99 0.67 C0.85 12.29, -0.46 57.14, -0.31 68.85" stroke="#1e1e1e" stroke-width="2" fill="none"></path></g></g><mask></mask><g transform="translate(766.4559432993364 131.5) rotate(0 56.2890625 12.5)"><text x="0" y="0" font-family="Virgil, Segoe UI Emoji" font-size="20px" fill="#1e1e1e" text-anchor="start" style="white-space: pre;" direction="ltr" dominant-baseline="text-before-edge">September 1</text></g><g transform="translate(252.87488861183635 10) rotate(0 186.6748046875 12.5)"><text x="0" y="0" font-family="Virgil, Segoe UI Emoji" font-size="20px" fill="#1e1e1e" text-anchor="start" style="white-space: pre;" direction="ltr" dominant-baseline="text-before-edge">Transmission Provider 1 "Summer" Ratings</text></g><g transform="translate(500.44324798683635 384.5) rotate(0 186.6748046875 12.5)"><text x="0" y="0" font-family="Virgil, Segoe UI Emoji" font-size="20px" fill="#1e1e1e" text-anchor="start" style="white-space: pre;" direction="ltr" dominant-baseline="text-before-edge">Transmission Provider 2 "Summer" Ratings</text></g><g transform="translate(66.20008392433635 390.5) rotate(0 146.8115234375 12.5)"><text x="0" y="0" font-family="Virgil, Segoe UI Emoji" font-size="20px" fill="#1e1e1e" text-anchor="start" style="white-space: pre;" direction="ltr" dominant-baseline="text-before-edge">Ratings Provider A "June" Ratings</text></g><g stroke-linecap="round"><g transform="translate(249.87488861183635 44) rotate(0 -68.5 77.5)"><path d="M0.17 -0.34 C-22.51 25.47, -113.82 130.02, -136.8 155.78 M-1.2 -1.56 C-23.96 23.82, -115.31 127.96, -137.64 154.07" stroke="#1e1e1e" stroke-width="2" fill="none"></path></g><g transform="translate(249.87488861183635 44) rotate(0 -68.5 77.5)"><path d="M-128.7 130.73 C-131.23 136.69, -131.51 140.81, -137.64 154.07 M-128.7 130.73 C-130.06 136, -133.79 140.77, -137.64 154.07" stroke="#1e1e1e" stroke-width="2" fill="none"></path></g><g transform="translate(249.87488861183635 44) rotate(0 -68.5 77.5)"><path d="M-115.78 141.94 C-121.51 145.23, -124.9 146.64, -137.64 154.07 M-115.78 141.94 C-120.09 144.61, -126.86 146.74, -137.64 154.07" stroke="#1e1e1e" stroke-width="2" fill="none"></path></g></g><mask></mask><g stroke-linecap="round"><g transform="translate(629.8748886118364 37) rotate(0 80 83.5)"><path d="M0.89 0.42 C27.44 28.24, 132.72 140.49, 159.28 168.08 M-0.1 -0.41 C26.84 27.62, 135 138.66, 161.62 166.52" stroke="#1e1e1e" stroke-width="2" fill="none"></path></g><g transform="translate(629.8748886118364 37) rotate(0 80 83.5)"><path d="M139.15 155.57 C146.66 157.47, 154.46 162.35, 161.62 166.52 M139.15 155.57 C144.42 158.48, 149.66 161.07, 161.62 166.52" stroke="#1e1e1e" stroke-width="2" fill="none"></path></g><g transform="translate(629.8748886118364 37) rotate(0 80 83.5)"><path d="M151.45 143.69 C155.4 149.23, 159.53 157.65, 161.62 166.52 M151.45 143.69 C154.15 149.08, 156.75 154.22, 161.62 166.52" stroke="#1e1e1e" stroke-width="2" fill="none"></path></g></g><mask></mask><g stroke-linecap="round"><g transform="translate(222.87488861183635 378) rotate(0 45.5 -79)"><path d="M0.96 0.52 C16.01 -25.76, 76.35 -132.03, 91.37 -158.42 M0 -0.26 C14.83 -26.31, 75.55 -131.07, 90.62 -157.1" stroke="#1e1e1e" stroke-width="2" fill="none"></path></g><g transform="translate(222.87488861183635 378) rotate(0 45.5 -79)"><path d="M86.25 -132.48 C88.97 -141.5, 89.12 -151.53, 90.62 -157.1 M86.25 -132.48 C86.97 -140.62, 89.51 -147.48, 90.62 -157.1" stroke="#1e1e1e" stroke-width="2" fill="none"></path></g><g transform="translate(222.87488861183635 378) rotate(0 45.5 -79)"><path d="M71.45 -141.05 C79.89 -146.84, 85.82 -153.53, 90.62 -157.1 M71.45 -141.05 C76.76 -146.61, 83.95 -150.78, 90.62 -157.1" stroke="#1e1e1e" stroke-width="2" fill="none"></path></g></g><mask></mask><g stroke-linecap="round"><g transform="translate(193.87488861183635 370) rotate(0 -42 -73)"><path d="M-0.34 0.55 C-14.16 -23.6, -69.75 -120.88, -83.56 -145.43 M1.68 -0.21 C-12.2 -24.66, -70.07 -122.98, -84.27 -147.26" stroke="#1e1e1e" stroke-width="2" fill="none"></path></g><g transform="translate(193.87488861183635 370) rotate(0 -42 -73)"><path d="M-65.01 -131.32 C-68.77 -134.56, -73.47 -137.86, -84.27 -147.26 M-65.01 -131.32 C-69.66 -134.42, -74.63 -139.4, -84.27 -147.26" stroke="#1e1e1e" stroke-width="2" fill="none"></path></g><g transform="translate(193.87488861183635 370) rotate(0 -42 -73)"><path d="M-79.76 -122.67 C-79.84 -128, -80.92 -133.42, -84.27 -147.26 M-79.76 -122.67 C-80.99 -127.67, -82.49 -134.69, -84.27 -147.26" stroke="#1e1e1e" stroke-width="2" fill="none"></path></g></g><mask></mask><g stroke-linecap="round"><g transform="translate(730.8748886118364 374) rotate(0 92.5 -71)"><path d="M-0.06 -0.21 C30.87 -23.94, 153.84 -119.49, 184.65 -142.96 M-1.55 -1.37 C29.27 -24.92, 152.6 -118.34, 183.52 -141.93" stroke="#1e1e1e" stroke-width="2" fill="none"></path></g><g transform="translate(730.8748886118364 374) rotate(0 92.5 -71)"><path d="M169.99 -120.9 C172.74 -126.13, 174.49 -130.52, 183.52 -141.93 M169.99 -120.9 C175.57 -128.34, 180.81 -136.32, 183.52 -141.93" stroke="#1e1e1e" stroke-width="2" fill="none"></path></g><g transform="translate(730.8748886118364 374) rotate(0 92.5 -71)"><path d="M159.64 -134.52 C164.61 -136.73, 168.66 -138.1, 183.52 -141.93 M159.64 -134.52 C169.08 -136.67, 178.26 -139.48, 183.52 -141.93" stroke="#1e1e1e" stroke-width="2" fill="none"></path></g></g><mask></mask><g stroke-linecap="round"><g transform="translate(1001.7780677239269 180.3454890551278) rotate(0 0.5 35)"><path d="M-0.95 1.06 C-0.83 12.85, -0.43 59.86, -0.14 71.18 M0.75 0.56 C1.3 12.02, 2.11 58.14, 1.97 69.67" stroke="#1e1e1e" stroke-width="2" fill="none"></path></g></g><mask></mask><g transform="translate(973.5858261118364 132.5) rotate(0 44.04296875 12.5)"><text x="0" y="0" font-family="Virgil, Segoe UI Emoji" font-size="20px" fill="#1e1e1e" text-anchor="start" style="white-space: pre;" direction="ltr" dominant-baseline="text-before-edge">October 1</text></g><g stroke-linecap="round"><g transform="translate(500.87488861183635 377) rotate(0 -124.5 -73)"><path d="M0.58 -1.08 C-40.53 -25.12, -206.1 -120.9, -247.82 -144.95 M-0.57 0.97 C-41.64 -23.33, -207.03 -121.8, -248.14 -146.52" stroke="#1e1e1e" stroke-width="2" fill="none"></path></g><g transform="translate(500.87488861183635 377) rotate(0 -124.5 -73)"><path d="M-223.59 -141.81 C-230.44 -140.69, -231.98 -144.87, -248.14 -146.52 M-223.59 -141.81 C-232.98 -144.21, -241.12 -146.04, -248.14 -146.52" stroke="#1e1e1e" stroke-width="2" fill="none"></path></g><g transform="translate(500.87488861183635 377) rotate(0 -124.5 -73)"><path d="M-232.37 -127.13 C-237.32 -129.09, -237.04 -136.31, -248.14 -146.52 M-232.37 -127.13 C-238.53 -134.73, -243.57 -141.74, -248.14 -146.52" stroke="#1e1e1e" stroke-width="2" fill="none"></path></g></g><mask></mask></svg>