<?xml version="1.0" encoding="us-ascii" standalone="no"?><svg xmlns="http://www.w3.org/2000/svg" xmlns:xlink="http://www.w3.org/1999/xlink" contentStyleType="text/css" height="609px" preserveAspectRatio="none" style="width:472px;height:609px;background:#FFFFFF;" version="1.1" viewBox="0 0 472 609" width="472px" zoomAndPan="magnify"><defs/><g><path d="M19.5,7 L446.5,7 A12.5,12.5 0 0 1 459,19.5 L459,33.2969 L7,33.2969 L7,19.5 A12.5,12.5 0 0 1 19.5,7 " fill="#F1F1F1" style="stroke:#F1F1F1;stroke-width:1.0;"/><rect fill="none" height="596.2969" rx="12.5" ry="12.5" style="stroke:#181818;stroke-width:0.5;" width="452" x="7" y="7"/><line style="stroke:#181818;stroke-width:0.5;" x1="7" x2="459" y1="33.2969" y2="33.2969"/><text fill="#000000" font-family="sans-serif" font-size="14" lengthAdjust="spacing" textLength="152" x="157" y="24.9951">Processing_Forecasts</text><ellipse cx="97.5" cy="54.2969" fill="#181818" rx="10" ry="10" style="stroke:none;stroke-width:1.0;"/><g id="Processing_Forecasts.AcceptingProposals"><rect fill="#F1F1F1" height="50" rx="12.5" ry="12.5" style="stroke:#181818;stroke-width:0.5;" width="157" x="19" y="101.2969"/><line style="stroke:#181818;stroke-width:0.5;" x1="19" x2="176" y1="127.5938" y2="127.5938"/><text fill="#000000" font-family="sans-serif" font-size="14" lengthAdjust="spacing" textLength="137" x="29" y="119.292">AcceptingProposals</text></g><!--link *start*Processing_Forecasts to AcceptingProposals--><g id="link_*start*Processing_Forecasts_AcceptingProposals"><path d="M97.5,64.7369 C97.5,72.5469 97.5,84.0869 97.5,95.0069 " fill="none" id="*start*Processing_Forecasts-to-AcceptingProposals" style="stroke:#181818;stroke-width:1.0;"/><polygon fill="#181818" points="97.5,99.9769,101.5,90.9769,97.5,94.9769,93.5,90.9769,97.5,99.9769" style="stroke:#181818;stroke-width:1.0;"/></g><!--link AcceptingProposals to AcceptingProposals--><g id="link_AcceptingProposals_AcceptingProposals"><path d="M176.26,119.0569 C186.91,120.2769 194,122.6869 194,126.2969 C194,129.2269 189.32,131.3769 181.85,132.7269 " fill="none" id="AcceptingProposals-to-AcceptingProposals" style="stroke:#181818;stroke-width:1.0;"/><polygon fill="#181818" points="177.26,133.5369,186.7396,136.2085,182.2086,132.8218,185.5954,128.2908,177.26,133.5369" style="stroke:#181818;stroke-width:1.0;"/><text fill="#000000" font-family="sans-serif" font-size="13" font-weight="bold" lengthAdjust="spacing" textLength="188" x="200" y="130.8638">Forecast Window closed&#128274;</text></g><line style="stroke:#181818;stroke-width:1.5;stroke-dasharray:8.0,10.0;" x1="12" x2="452" y1="156.2969" y2="156.2969"/><ellipse cx="193" cy="172.2969" fill="#181818" rx="10" ry="10" style="stroke:none;stroke-width:1.0;"/><g id="Processing_Forecasts.CONC7.Idle"><rect fill="#F1F1F1" height="50" rx="12.5" ry="12.5" style="stroke:#181818;stroke-width:0.5;" width="50" x="168" y="219.2969"/><line style="stroke:#181818;stroke-width:0.5;" x1="168" x2="218" y1="245.5938" y2="245.5938"/><text fill="#000000" font-family="sans-serif" font-size="14" lengthAdjust="spacing" textLength="24" x="181" y="237.292">Idle</text></g><g id="Processing_Forecasts.CONC7.SubmittingProposals"><rect fill="#F1F1F1" height="50" rx="12.5" ry="12.5" style="stroke:#181818;stroke-width:0.5;" width="162" x="19" y="322.2969"/><line style="stroke:#181818;stroke-width:0.5;" x1="19" x2="181" y1="348.5938" y2="348.5938"/><text fill="#000000" font-family="sans-serif" font-size="14" lengthAdjust="spacing" textLength="142" x="29" y="340.292">SubmittingProposals</text></g><g id="Processing_Forecasts.CONC7.AwaitingSnapshot"><rect fill="#F1F1F1" height="50" rx="12.5" ry="12.5" style="stroke:#181818;stroke-width:0.5;" width="143" x="130.5" y="425.2969"/><line style="stroke:#181818;stroke-width:0.5;" x1="130.5" x2="273.5" y1="451.5938" y2="451.5938"/><text fill="#000000" font-family="sans-serif" font-size="14" lengthAdjust="spacing" textLength="123" x="140.5" y="443.292">AwaitingSnapshot</text></g><!--link *start*CONC7 to Idle--><g id="link_*start*CONC7_Idle"><path d="M193,182.7369 C193,190.5469 193,202.0869 193,213.0069 " fill="none" id="*start*CONC7-to-Idle" style="stroke:#181818;stroke-width:1.0;"/><polygon fill="#181818" points="193,217.9769,197,208.9769,193,212.9769,189,208.9769,193,217.9769" style="stroke:#181818;stroke-width:1.0;"/></g><!--link Idle to SubmittingProposals--><g id="link_Idle_SubmittingProposals"><path d="M167.7,247.9969 C143.66,252.0569 108.76,262.1769 92,287.2969 C86.39,295.7069 86.23,306.3069 88.18,316.1869 " fill="none" id="Idle-to-SubmittingProposals" style="stroke:#181818;stroke-width:1.0;"/><polygon fill="#181818" points="89.55,320.8969,91.3349,311.2111,88.381,316.0355,83.5566,313.0815,89.55,320.8969" style="stroke:#181818;stroke-width:1.0;"/><text fill="#000000" font-family="sans-serif" font-size="13" font-weight="bold" lengthAdjust="spacing" textLength="188" x="93" y="300.3638">Forecast Window closed&#128274;</text></g><!--link SubmittingProposals to AwaitingSnapshot--><g id="link_SubmittingProposals_AwaitingSnapshot"><path d="M106.75,372.7469 C110.87,384.2469 117.09,397.5469 126,407.2969 C130.86,412.6169 136.56,417.4169 142.61,421.6969 " fill="none" id="SubmittingProposals-to-AwaitingSnapshot" style="stroke:#181818;stroke-width:1.0;"/><polygon fill="#181818" points="146.3,424.8769,141.0966,416.5148,142.1619,422.0704,136.6063,423.1357,146.3,424.8769" style="stroke:#181818;stroke-width:1.0;"/><text fill="#000000" font-family="sans-serif" font-size="13" font-weight="bold" lengthAdjust="spacing" textLength="154" x="127" y="403.3638">Proposal submitted&#128228;</text></g><!--link AwaitingSnapshot to Idle--><g id="link_AwaitingSnapshot_Idle"><path d="M265.78,424.8069 C272.2,419.9269 277.86,414.1469 282,407.2969 C309.59,361.6569 310.55,332.3469 282,287.2969 C269.29,267.2469 244.16,256.5869 223.84,251.0369 " fill="none" id="AwaitingSnapshot-to-Idle" style="stroke:#181818;stroke-width:1.0;"/><polygon fill="#181818" points="219.25,249.5969,226.9732,255.7086,224.0931,250.8398,228.9618,247.9597,219.25,249.5969" style="stroke:#181818;stroke-width:1.0;"/><text fill="#000000" font-family="sans-serif" font-size="13" font-weight="bold" lengthAdjust="spacing" textLength="145" x="304" y="351.8638">Snapshot received&#128229;</text></g><line style="stroke:#181818;stroke-width:1.5;stroke-dasharray:8.0,10.0;" x1="12" x2="452" y1="480.2969" y2="480.2969"/><ellipse cx="87.5" cy="496.2969" fill="#181818" rx="10" ry="10" style="stroke:none;stroke-width:1.0;"/><g id="Processing_Forecasts.CONC17.ServingSnapshot"><rect fill="#F1F1F1" height="50" rx="12.5" ry="12.5" style="stroke:#181818;stroke-width:0.5;" width="137" x="19" y="543.2969"/><line style="stroke:#181818;stroke-width:0.5;" x1="19" x2="156" y1="569.5938" y2="569.5938"/><text fill="#000000" font-family="sans-serif" font-size="14" lengthAdjust="spacing" textLength="117" x="29" y="561.292">ServingSnapshot</text></g><!--link *start*CONC17 to ServingSnapshot--><g id="link_*start*CONC17_ServingSnapshot"><path d="M87.5,506.7369 C87.5,514.5469 87.5,526.0869 87.5,537.0069 " fill="none" id="*start*CONC17-to-ServingSnapshot" style="stroke:#181818;stroke-width:1.0;"/><polygon fill="#181818" points="87.5,541.9769,91.5,532.9769,87.5,536.9769,83.5,532.9769,87.5,541.9769" style="stroke:#181818;stroke-width:1.0;"/></g><!--link ServingSnapshot to ServingSnapshot--><g id="link_ServingSnapshot_ServingSnapshot"><path d="M156.38,560.8569 C166.87,561.9969 174,564.4769 174,568.2969 C174,571.4069 169.29,573.6269 161.9,574.9569 " fill="none" id="ServingSnapshot-to-ServingSnapshot" style="stroke:#181818;stroke-width:1.0;"/><polygon fill="#181818" points="157.38,575.7369,166.852,578.4354,162.3306,575.0358,165.7302,570.5144,157.38,575.7369" style="stroke:#181818;stroke-width:1.0;"/><text fill="#000000" font-family="sans-serif" font-size="13" font-weight="bold" lengthAdjust="spacing" textLength="145" x="180" y="572.8638">Snapshot received&#128229;</text></g><!--SRC=[Aov9B4bL22ZAJqujBixCIuztoozAJKuiBYbMgEPI089ehLW5NLqx1SVavDI24g0AeDg2_EB4d6AmDAOm3jLM2bfQCBCLmZFpKlBB5P9pyejJKpxCdp99ImjicgwkBegbdYavgM0140Ci4boQb9jPGhh9MFH175gUc0aI3SvBB2ZEo2y16GPJeL0CqGGoQF8Ig47e6k3k1Ec42m9TavfP1jQu58VVWbEBof3CWRWILGoREdpMr080]--></g></svg>