<?xml version="1.0" encoding="UTF-8"?>
<svg id="Layer_1" data-name="Layer 1" xmlns="http://www.w3.org/2000/svg" viewBox="0 0 170.2450488 200.8954379">
  <defs>
    <style>
      .cls-1 {
        opacity: .15;
      }

      .cls-2 {
        opacity: .3;
      }

      .cls-3 {
        fill: #fff;
        stroke-width: 0px;
      }
    </style>
  </defs>
  <g class="cls-2">
    <polygon class="cls-3" points="120.3704366 176.7864788 120.3704366 172.6406531 49.8746122 172.6406531 49.8746122 176.7864788 102.6852573 176.7864788 102.6852573 181.4089708 49.8746122 181.4089708 49.8746122 194.4239773 120.3704366 194.4239773 120.3704366 181.4089708 109.7927902 181.4089708 109.7927902 176.7864788 120.3704366 176.7864788"/>
  </g>
  <g class="cls-1">
    <path class="cls-3" d="m58.6440585,122.8265587l-9.0885404,15.7421188c.63974.4051452,1.2862513.7992871,1.9409444,1.1822847l9.7703185-16.9244036h-2.6227225Z"/>
    <path class="cls-3" d="m91.0105308,40.9488634h-11.8349789c-1.8022753,0-3.3528867,1.2854049-3.7298184,3.0064255h19.2934871c-.3769317-1.7210206-1.9264145-3.0064255-3.7286898-3.0064255Z"/>
    <path class="cls-3" d="m75.2358254,147.9372365h17.5053185c4.2540243-.5778115,8.3740347-1.5693733,12.3222252-2.9349044h-42.149769c3.9481905,1.3655311,8.0682009,2.3570929,12.3222252,2.9349044Z"/>
    <polygon class="cls-3" points="59.1011164 133.5454134 113.5496935 133.5454134 110.9427705 129.0312611 61.7080394 129.0312611 59.1011164 133.5454134"/>
    <path class="cls-3" d="m113.8734429,26.9466682l-9.911809,8.3075921c-.3001911.2855201-.7222644.4525438-1.1657798.4525438-.4785001,0-.9276583-.1963656-1.2662197-.5529837-.6477809-.6985651-.6094106-1.7966326.0801262-2.4534418l8.8471743-7.4144952c-7.1739756-3.2353776-15.0381932-5.2091907-23.3203932-5.6074236l.0685587,9.4918517c.0067712.4378728-.1546097.8610746-.4548008,1.1883506-.325019.3521039-.7730486.5518551-1.2639627.5608834h-.0056427c-.9502291,0-1.7311774-.769663-1.7481055-1.7187635l-.069264-9.5938433c-8.2455225.0409095-16.1180631,1.6396248-23.355801,4.5006099l9.3307529,8.5883159c.696308.6590662.7346783,1.7582623.0914116,2.4534418-.3430756.3611322-.7933623.5574978-1.2718624.5574978-.4435155,0-.8644602-.1670236-1.184965-.4706004l-10.4622534-9.6295334c-22.0224333,10.2550256-37.2950803,32.5707377-37.2950803,58.4650441,0,21.6930412,10.7250617,40.8688783,27.149805,52.5547491l7.9746733-13.8134473h-5.008452c-2.1837212,0-3.9611687-1.7763189-3.9611687-3.9611687v-60.9376711c0-7.703401,6.2679005-13.9713015,13.9713015-13.9713015h12.3281501c.4130449-3.6700059,3.5029822-6.4857084,7.2181296-6.4857084h11.8349789c3.7151474,0,6.8050847,2.8157025,7.2181296,6.4857084h12.3416925c7.6966298,0,13.9577591,6.2679005,13.9577591,13.9713015v60.9512135c0,2.1848497-1.7774475,3.9611687-3.9611687,3.9611687h-2.5572673l6.5508815,11.3306635c14.569991-11.8205901,23.888471-29.861541,23.888471-50.0855078,0-24.8190917-14.0321015-46.3487771-34.5879996-57.1250462Z"/>
    <path class="cls-3" d="m57.0855474,137.0235678l-2.5406214,4.3993236c.0746246.0383703.1493902.0765995.2242969.1148288h58.4385235c1.2765176-.6504611,2.5322984-1.3346374,3.7578908-2.065789l-1.4139172-2.4483634h-58.4661727Z"/>
    <polygon class="cls-3" points="63.710066 125.5531067 108.9272015 125.5531067 107.3528909 122.8265587 65.283248 122.8265587 63.710066 125.5531067"/>
    <path class="cls-3" d="m111.3704864,122.8265587l8.5376728,14.7890684c.6318403-.4246125,1.247881-.8699618,1.8634985-1.3161575l-7.7784488-13.4729109h-2.6227225Z"/>
    <path class="cls-3" d="m72.0285202,107.4513558c0,.4491582.3645178.8148045.813676.8148045h24.9474629c.4491582,0,.8148045-.3656463.8148045-.8148045s-.3656463-.8148045-.8148045-.8148045h-24.9474629c-.4491582,0-.813676.3656463-.813676.8148045Z"/>
    <path class="cls-3" d="m72.8421962,112.0580483h24.9474629c.4491582,0,.8148045-.3656463.8148045-.8148045s-.3656463-.8148045-.8148045-.8148045h-24.9474629c-.4491582,0-.813676.3656463-.813676.8148045s.3645178.8148045.813676.8148045Z"/>
  </g>
  <g>
    <path class="cls-3" d="m170.2450488,85.1225244C170.2450488,38.185779,132.0591288,0,85.1225244,0,38.185779,0,0,38.185779,0,85.1225244c0,31.0439668,16.5271581,59.119173,43.4030106,74.2112539v5.1155221h-6.1842476v4.622492h6.1842476v7.7146864h-6.1842476v4.622492h6.1842476v19.4864671h83.4388867v-19.4864671h5.2146924v-4.622492h-5.2146924v-7.7146864h5.4426571v-4.622492h-5.4426571v-5.1155221c26.8759935-15.0920809,43.4031516-43.1672872,43.4031516-74.2112539Zm-95.0092234,62.8147121h-24.4367995l1.6922429-2.9349044h67.6931001l1.6921018,2.9349044h-46.6406453Zm.2099081-103.9819476c.3769317-1.7210206,1.9275431-3.0064255,3.7298184-3.0064255h11.8349789c1.8022753,0,3.3517581,1.2854049,3.7286898,3.0064255h-19.2934871Zm31.7660901,62.2479038c1.7311774,0,3.1384644,1.4061585,3.1384644,3.1373359s-1.407287,3.1373359-3.1384644,3.1373359c-1.7300489,0-3.1373359-1.4061585-3.1373359-3.1373359s1.407287-3.1373359,3.1373359-3.1373359Zm4.2229895-43.5401279v29.7855057c0,2.6182084-2.1284228,4.7466312-4.7455027,4.7466312h-17.4505844v-39.2787681h17.4505844c2.6170798,0,4.7455027,2.1295514,4.7455027,4.7466312Zm-38.592617,47.7653745h24.9474629c.4491582,0,.8148045.3656463.8148045.8148045s-.3656463.8148045-.8148045.8148045h-24.9474629c-.4491582,0-.813676-.3656463-.813676-.8148045s.3645178-.8148045.813676-.8148045Zm24.9474629-2.162279h-24.9474629c-.4491582,0-.813676-.3656463-.813676-.8148045s.3645178-.8148045.813676-.8148045h24.9474629c.4491582,0,.8148045.3656463.8148045.8148045s-.3656463.8148045-.8148045.8148045Zm-31.6656502,1.0879107c0,1.7311774-1.407287,3.1373359-3.1373359,3.1373359-1.7311774,0-3.1384644-1.4061585-3.1384644-3.1373359s1.407287-3.1373359,3.1384644-3.1373359c1.7300489,0,3.1373359,1.4061585,3.1373359,3.1373359Zm-7.3479115-46.6785924c0-2.6170798,2.1295514-4.7455027,4.7466312-4.7455027h17.4494559v39.2923106h-17.4494559c-2.6170798,0-4.7466312-2.1284228-4.7466312-4.7466312v-29.8001767Zm2.4906836,60.15108l-9.7703185,16.9244036-4.3397932,7.5174743h-2.6238511l5.0226998-8.699759,9.0885404-15.7421188h2.6227225Zm-6.721855,18.5963327l2.5406214-4.3993236h58.4661727l1.4139172,2.4483634,1.1930058,2.065789h-63.6800186l.0663016-.1148288Zm4.5561904-7.877478l2.606923-4.5141523h49.2347311l2.606923,4.5141523h-54.4485771Zm66.3794817,13.7230231l-5.5724389-9.6528095-8.5376728-14.7890684h2.6227225l7.7784488,13.4729109,6.3327915,10.968967h-2.6238511Zm-61.7705322-21.7153299l1.5731821-2.726548h42.0696428l1.5743106,2.726548h-45.2171355ZM6.4714606,85.1225244C6.4714606,41.6848113,41.6846702,6.4714606,85.1225244,6.4714606c43.4377131,0,78.6509228,35.2133507,78.6509228,78.6510638,0,25.6384104-12.2942939,48.37676-31.2801134,62.7343037l-7.9203624-13.699606-6.5508815-11.3306635h2.5572673c2.1837212,0,3.9611687-1.7763189,3.9611687-3.9611687v-60.9512135c0-7.703401-6.2611293-13.9713015-13.9577591-13.9713015h-12.3416925c-.4130449-3.6700059-3.5029822-6.4857084-7.2181296-6.4857084h-11.8349789c-3.7151474,0-6.8050847,2.8157025-7.2181296,6.4857084h-12.3281501c-7.703401,0-13.9713015,6.2679005-13.9713015,13.9713015v60.9376711c0,2.1848497,1.7774475,3.9611687,3.9611687,3.9611687h5.008452l-7.9746733,13.8134473-6.5297214,11.310773h-2.2749917c-19.0474658-14.3527474-31.3891583-37.1276335-31.3891583-62.8147121Zm113.898976,87.5181286v4.1458257h-10.5776464v4.622492h10.5776464v13.0150066H49.8746122v-13.0150066h52.8106451v-4.622492h-52.8106451v-7.7146864h70.4958244v3.5688606Zm-70.4958244-8.1913526v-8.1168691h70.4958244v8.1168691H49.8746122Z"/>
    <path class="cls-3" d="m106.7606905,66.7655828c-.0102979.0035267-.0214422.0012696-.0317401.0049374-.090283.0324455-.1649076.1035434-.2498301.1515062-.113277.0639035-.2344538.1107378-.3337651.2021494l-13.9972579,13.1034557c-.6906653.6545521-.7290356,1.7537482-.0812547,2.4534418.3385614.356618.7888481.5529837,1.2673483.5529837.4435155,0,.8644602-.1670236,1.1838365-.4694718l13.9938723-13.1000701.0022571-.0022571c.6895368-.6545521.7279071-1.7537482.0801262-2.4534418-.4842839-.5092528-1.2073947-.6559628-1.8335923-.4432333Z"/>
    <path class="cls-3" d="m62.7304949,83.234057c.4435155,0,.8655887-.1670236,1.184965-.4694718l13.9950008-13.1023272c.6895368-.6545521.7279071-1.7537482.0801262-2.4534418-.6545521-.6906653-1.7548767-.72565-2.4511847-.0823833l-13.9927437,13.0989416-.0022571.0022571c-.6906653.6545521-.7290356,1.7537482-.0801262,2.4545703.3385614.3554895.7888481.5518551,1.2662197.5518551Z"/>
    <path class="cls-3" d="m75.5394022,73.3819195l-13.9927437,13.0989416-.0022571.0022571c-.6895368.6568092-.7279071,1.7537482-.0801262,2.4534418.3385614.356618.7888481.5529837,1.2662197.5529837.4435155,0,.8644602-.1670236,1.184965-.4672148l13.9950008-13.1034557c.6895368-.6568092.7279071-1.7548767.0801262-2.4534418-.6545521-.6917938-1.7514911-.7312927-2.4511847-.0835118Z"/>
    <path class="cls-3" d="m106.1453551,73.3796624l-13.9972579,13.1034557c-.6895368.6568092-.7279071,1.7537482-.0812547,2.4534418.3385614.356618.7888481.5529837,1.2673483.5529837.4423869,0,.8633316-.1670236,1.1838365-.4672148l13.9938723-13.1011987.0022571-.0022571c.6895368-.6568092.7279071-1.7548767.0801262-2.4534418-.6534236-.6917938-1.7537482-.7267785-2.4489276-.0857689Z"/>
    <path class="cls-3" d="m102.7958541,35.706804c.4435155,0,.8655887-.1670236,1.1657798-.4525438l9.911809-8.3075921,1.3284304-1.1134439c.6906653-.6545521.7290356-1.7537482.0812547-2.4534418-.6534236-.6861512-1.7458484-.7290356-2.4398993-.0936687l-2.3862938,1.9997695-8.8471743,7.4144952c-.6895368.6568092-.7279071,1.7548767-.0801262,2.4534418.3385614.356618.7877196.5529837,1.2662197.5529837Z"/>
    <path class="cls-3" d="m56.8106073,25.6066703l10.4622534,9.6295334c.3205048.3035767.7414495.4706004,1.184965.4706004.4785001,0,.9287868-.1963656,1.2718624-.5574978.6432667-.6951795.6048964-1.7943756-.0914116-2.4534418l-9.3307529-8.5883159-1.8880442-1.7378076c-.6951795-.6443952-1.7955041-.6037679-2.4534418.090283-.6432667.6951795-.6048964,1.7943756.0914116,2.4534418l.7531581.6932045Z"/>
    <path class="cls-3" d="m83.7325887,29.2007819c.0169281.9491005.7978764,1.7187635,1.7481055,1.7187635h.0056427c.4909141-.0090283.9389437-.2087795,1.2639627-.5608834.3001911-.327276.4615721-.7504778.4548008-1.1883506l-.0685587-9.4918517-.0431666-5.9826625c-.0157995-.9491005-.7956194-1.719892-1.7481055-1.719892h-.0056427c-.9502291.0169281-1.7210206.801262-1.7187635,1.746977l.0424612,5.8840565.069264,9.5938433Z"/>
  </g>
</svg>